<?xml version="1.0" standalone="no"?>
<!DOCTYPE svg PUBLIC "-//W3C//DTD SVG 1.1//EN" "http://www.w3.org/Graphics/SVG/1.1/DTD/svg11.dtd" >
<svg xmlns="http://www.w3.org/2000/svg" xmlns:xlink="http://www.w3.org/1999/xlink" version="1.1">
<metadata>
Created by FontForge 20170731 at Sun Sep 19 21:31:10 2021
 By Aleksey,,,
DmitriyChirkov (C) 2018
</metadata>
<defs>
<font id="MoonTime-Regular" horiz-adv-x="1351" >
  <font-face 
    font-family="MoonTime"
    font-weight="400"
    font-stretch="normal"
    units-per-em="2048"
    panose-1="0 0 5 0 0 0 0 0 0 0"
    ascent="1638"
    descent="-410"
    x-height="516"
    cap-height="1204"
    bbox="-410 -819 2165.84 1434"
    underline-thickness="102"
    underline-position="-307"
    unicode-range="U+0020-25CA"
  />
<missing-glyph horiz-adv-x="1126" 
d="M924 1434v-2253h-715v2253h715zM750 1282h-371v-74h145v-84h-147v-73h373v73h-148v84h148v74zM602 991h-225v-233h373v76h-148v157zM524 915v-81h-73v81h73zM750 696h-373v-73h147v-84h-147v-74h225v158h148v73zM750 561h-74v-147h-299v-78h373v225zM750 287h-226v-125
h78v51h74v-107h-225v181h-74v-254h373v254zM750 -102h-373v-254h373v254zM676 -178v-105h-225v105h225zM750 -410h-373v-73h158l-158 -107v-74h373v74h-230l158 107h72v73z" />
    <glyph glyph-name="f_f" unicode="ff" horiz-adv-x="688" 
d="M401 449q-9 -29 -28.5 -86.5t-28.5 -86.5q-2 -7 -5 -22.5t-5 -22.5q12 -6 33 5q24 14 84 48.5t92 53.5q30 18 88.5 53.5t87.5 52.5q25 15 33 19q21 7 30 -12q9 -16 -6 -27q-8 -8 -20 -14q-22 -13 -149 -91.5t-197 -115.5l-74 -45q-18 -15 -8 -33l18 -31q128 -224 68 -485
q-9 -44 -35 -80q-25 -31 -53 -30.5t-50 32.5q-18 29 -30 68q-24 70 -27 145q-13 212 55 465q17 62 39 131q9 31 4 43v-2q-10 2 -26 -10q-132 -107 -217 -144q-22 -6 -13 -28q34 -88 37 -158q9 -156 -61 -305q-12 -35 -45 -49q-38 -15 -60 20q-12 22 -12 60q-5 99 19 227
q85 468 315 897q49 94 98 158q39 43 60 55q26 15 46 4.5t23 -41.5q3 -35 -10 -72q-14 -42 -43 -110q-114 -237 -307 -523q-5 -10 -8 -14t-8.5 -11.5t-12 -11.5t-14.5 -6q-12 -3 -12 -18q-3 -7 2 -12q6 -6 10 -2q26 11 45 22q116 72 227 180q24 24 39 70q65 165 143 315
q55 105 103 170q39 53 70 72q35 23 63 10q4 -2 7 -4.5t5 -4.5t4 -5.5t3 -5.5t2 -6.5t1.5 -6t0.5 -7v-6.5v-7.5v-7.5q-2 -36 -35 -104q-43 -90 -92 -162q-133 -192 -222 -283q-30 -34 -41 -67zM645 973q-82 -134 -145 -285q-4 -11 -8 -29q8 0 18 15q125 155 195 293
q25 51 32 86q3 7 -2 12q-3 4 -16 0q-25 -22 -74 -92zM111 442q-9 -19 -2 -28q3 1 5 2t3.5 3t2.5 3.5t2.5 4t2.5 3.5q163 263 254 447q21 43 47 112q14 36 12 62q0 5 -6 8h-6q-3 -3 -11.5 -9.5t-11.5 -11.5q-43 -50 -92 -139q-106 -188 -200 -457zM317 383q2 -2 2.5 -1.5
t-0.5 3.5q0 -2 -2 -2zM-2 -231q65 148 47 309q-4 33 -18 49q-15 -6 -19 -31q-1 -6 -10.5 -54t-13.5 -73q-17 -121 -17 -172q1 -6 2 -18.5t2 -18.5q0 -4 6 -10q9 0 11 4q8 8 10 15zM365 -381q55 215 -46 422q-9 18 -22 18l-4 -4q-1 -4 -3 -11t-3 -11q-31 -163 -17 -316
q7 -85 35 -137q1 -1 4 -7.5t5 -8.5t6 -4.5t10 -1.5q10 0 20 20q13 26 15 41z" />
    <glyph glyph-name=".notdef" horiz-adv-x="1126" 
d="M924 1434v-2253h-715v2253h715zM750 1282h-371v-74h145v-84h-147v-73h373v73h-148v84h148v74zM602 991h-225v-233h373v76h-148v157zM524 915v-81h-73v81h73zM750 696h-373v-73h147v-84h-147v-74h225v158h148v73zM750 561h-74v-147h-299v-78h373v225zM750 287h-226v-125
h78v51h74v-107h-225v181h-74v-254h373v254zM750 -102h-373v-254h373v254zM676 -178v-105h-225v105h225zM750 -410h-373v-73h158l-158 -107v-74h373v74h-230l158 107h72v73z" />
    <glyph glyph-name=".null" horiz-adv-x="0" 
 />
    <glyph glyph-name="nonmarkingreturn" horiz-adv-x="682" 
 />
    <glyph glyph-name="space" unicode=" " horiz-adv-x="614" 
 />
    <glyph glyph-name="exclam" unicode="!" horiz-adv-x="323" 
d="M100 272q-6 0 -9.5 6t-2.5 13l6 22q18 34 31.5 71t31 90.5t23.5 72.5q16 53 35 147q17 71 49 164l12 29q14 32 37 26q16 -10 9 -32q-27 -96 -41 -136q-16 -45 -32 -98t-25 -89.5t-24.5 -101t-23.5 -94.5q-9 -35 -14 -47q-2 -9 -12 -16t-17 -4l-2 2q-5 2 -6 -1
q-2 -8 -6 -15q-9 -9 -19 -9zM82 106q-21 6 -21 19q3 14 7 20q10 19 22 21q16 4 23 -6q11 -13 0 -35q-10 -16 -31 -19z" />
    <glyph glyph-name="quotedbl" unicode="&#x22;" horiz-adv-x="210" 
d="M131 1296q22 -13 16 -34q-14 -63 -36 -76l-27 -15q-4 -2 -10 0.5t-9.5 5t-3.5 1.5q-3 14 7 24q18 12 26 25q6 9 7 12t0 5t-7 5q-6 6 -6 15q-4 20 16 30h-2q11 8 27 4zM193 1296q22 -13 16 -34q-13 -62 -37 -76l-27 -15q-4 -2 -9.5 0.5t-9 5t-3.5 1.5q-3 15 6 24
q20 13 27 25q6 9 7 12t0 5t-7 5q-6 6 -6 15q-4 20 16 30h-2q10 8 26 4zM61 1176v2v-2zM123 1176v2v-2z" />
    <glyph glyph-name="numbersign" unicode="#" horiz-adv-x="528" 
d="M526 580q3 -4 -1 -11.5t-7 -7.5q-18 -10 -41 -14q-24 -4 -69 -15q-12 -4 -17 -14q-7 -18 -14 -47q-3 -9 -1 -11.5t11 -0.5l88 14h2h10q5 -1 11 -8q-4 -16 -9 -21v2q-11 -14 -34 -14h2l-84 -12q-15 -3 -21 -17l-24 -65v2q0 -2 -0.5 -3t-1.5 -2.5t-1.5 -2.5t-3 -2
t-3.5 -1.5l-4 -2l-5 -2.5q-10 -1 -14.5 5t0.5 17l18 55q3 11 -6 11l-78 -13q-7 0 -14 -20q-27 -74 -35 -113v-2q-10 -30 -16 -37q-9 -6 -19 -6q-7 0 -14 10q2 21 14 56l31 100v-2q1 4 0 5t-6 1q-15 -1 -44 -6t-34 -6q-3 0 -9.5 -1t-10.5 -1q-9 0 -11 18q2 8 2 11
q30 10 37 12l74 12q19 2 25 19q4 16 4 27t-2 16t-8 6.5t-10.5 1t-12.5 -2t-12 -1.5q-10 -1 -38 -6.5t-46 -4.5q4 33 30 39q8 1 32.5 5t37.5 6q8 2 27 2q18 5 22 8t10 20q3 10 9 28t11.5 33t10.5 29q7 18 15 31q1 3 10 12q10 4 17 -0.5t5 -13.5q-1 -12 -5 -24.5t-13 -34.5
t-14 -35l-3 -10v-2q-8 -26 -6 -29t25 2q17 5 61 10h-2q14 2 21 19q14 47 43 122l-2 -2l24 80v-2q4 11 9 19q8 8 18 8q6 0 10 -5.5t2 -11.5v-2q-8 -23 -20.5 -64.5t-18.5 -59.5q-4 -13 -13 -39.5t-13 -40.5q-2 -5 0 -6.5t6 -0.5h2q13 1 38.5 6.5t33.5 6.5h-2q8 2 24 2l8 -6z
M350 514q2 6 0 6h-2q-15 0 -43 -4q-41 -7 -49.5 -15t-17.5 -46q-3 -11 -1 -14t11 -1q8 2 24 3t23.5 3t18.5 8.5t19.5 21t16.5 38.5z" />
    <glyph glyph-name="dollar" unicode="$" horiz-adv-x="550" 
d="M82 -127q-9 1 -15 8t-6 15q0 18 11 47q19 73 39 133q9 29 -9 49q-33 39 -39 92q-6 49 35 82q12 12 25 2q13 -7 10 -22q-2 -12 -10 -31q-12 -25 2 -51q0 -1 3 -4t5 -3q5 -2 12 5q10 25 11 30l104 326q2 6 5 19.5t5 19.5q3 14 -10 24q-39 24 -49 33q-65 59 -6 123
q46 49 108 76q44 18 64 72q11 35 34 100.5t27 77.5q13 36 23 47q11 11 24 6q20 -8 17 -25q-2 -16 -10 -39q-9 -27 -27 -76t-25 -69q-7 -21 -12 -41q10 -5 20 -7t22.5 -2.5t16.5 -0.5q24 -3 43 -17q17 -13 19 -26q6 -19 -6 -31q-17 -14 -31 0q-22 25 -74 21q-37 -3 -45 -35
q-22 -66 -45 -148q-8 -18 14 -32q55 -38 60 -43q54 -46 69.5 -112.5t-14.5 -131.5q-69 -144 -209 -217l-30 -13q-7 -4 -31 -7t-33 -13q-8 -9 -12.5 -21t-8.5 -29t-6 -24q-11 -31 -28 -96q-7 -18 -15 -31q-9 -13 -22 -10zM276 670q14 -5 17 4q26 51 29 94q0 1 -9 10h-6
q-46 -20 -67 -51q-12 -15 0 -31q10 -15 36 -26zM219 156q152 60 215 217q25 61 -8 118.5t-102 77.5l-13 -30q-18 -56 -53.5 -169t-52.5 -169q-6 -24 -6 -25q-4 -12 2 -18t18 -2z" />
    <glyph glyph-name="percent" unicode="%" horiz-adv-x="808" 
d="M780 991q13 1 22.5 -12t4.5 -25q-8 -20 -37 -49q-94 -99 -180 -207q-65 -82 -131 -169t-161.5 -216t-127.5 -172q-1 -2 -11.5 -16t-13.5 -19.5t-8.5 -17t-7.5 -22.5q-7 -20 -27 -29q-20 -8 -30 2q-15 9 -11 31q7 17 15 28q14 25 26 39q18 24 115 155.5t135 182.5
t110.5 146t133.5 170q84 96 86 98q-14 9 -37 2l-225 -62q-27 -9 -51 -18q-36 -9 -39 -47q-3 -56 -39 -98q-27 -27 -51 -31q-49 -7 -64 37q-6 12 -6 26q0 104 63 170q22 23 41.5 23.5t44.5 -19.5q19 -14 37 -8q48 16 181.5 52t203.5 65q12 6 39 10zM684 889v2q-4 0 -6 2z
M274 756l13 71q0 13 -4 13q-15 0 -17 -4q-14 -15 -24 -36.5t-13.5 -35.5t-9.5 -41q0 -2 1 -8.5t1.5 -9t3.5 -6.5t8 -5q12 0 23 15q15 21 18 47zM596 342q35 -32 47 -80q14 -56 -20 -104t-97 -45q-50 -1 -76 33t-24 77q0 85 53 156q6 7 25 22q13 10 32 7t25 -21q6 -20 35 -45
zM537 166q31 4 47 28.5t8 55.5q-13 43 -74 90q-30 -39 -37 -98q-2 -14 2 -39q9 -40 54 -37z" />
    <glyph glyph-name="ampersand" unicode="&#x26;" horiz-adv-x="530" 
d="M203 -152q-9 -2 -18.5 4t-12.5 15q-7 33 0 80l18 86q0 1 4.5 16t4 17t-1.5 18q-9 7 -29 8t-23 2q-54 14 -74 52.5t1 91.5q37 91 127 161l39 25q23 17 0 29q-4 2 -12.5 5t-12.5 5q-46 25 -59.5 57.5t0.5 81.5q15 48 63 100q67 70 141 101q29 13 41 49q9 36 45 131
q3 11 21 43q9 15 21.5 21t21.5 0q16 -13 4 -43q-7 -17 -22.5 -52t-22.5 -53q-4 -10 -14 -51q-4 -15 12 -21q7 -3 21.5 -8t21.5 -8q19 -9 22 -31q0 -12 -10.5 -22t-19.5 -4q-26 17 -55 17t-45.5 -7.5t-49.5 -24.5q-56 -26 -108 -88q-30 -42 -35 -63q-21 -62 37 -80
q31 -10 116 -27q27 -6 37.5 -12.5t8.5 -17.5t-10 -17.5t-12 -7.5t-19 -4q-140 -43 -215 -150q-29 -48 -33 -65q-12 -37 26 -55q31 -14 58 -5q124 28 217 103q7 5 12.5 10t12 14t9 12.5t10.5 16t9 14.5q13 17 29 7q17 -9 14 -29q-2 -10 -10 -25q-19 -37 -58 -65
q-65 -54 -108 -66q-43 -13 -64.5 -40.5t-29.5 -73.5q-2 -15 -9.5 -46.5t-11.5 -56.5t-2 -49q4 -19 -18 -25z" />
    <glyph glyph-name="quotesingle" unicode="'" horiz-adv-x="149" 
d="M131 1296q22 -13 16 -34q-14 -63 -36 -76l-27 -15q-4 -2 -10 0.5t-9.5 5t-3.5 1.5q-3 14 7 24q18 12 26 25q6 9 7 12t0 5t-7 5q-6 6 -6 15q-4 20 16 30h-2q11 8 27 4zM61 1176v2v-2z" />
    <glyph glyph-name="parenleft" unicode="(" horiz-adv-x="415" 
d="M403 1090q10 -10 11.5 -12t-0.5 -11q-3 -9 -8 -14q-61 -82 -105 -197q-88 -213 -125 -340q-34 -122 -47 -219q-24 -147 -27 -250q-4 -39 4 -57q4 -18 -4 -35l-3 -4q-3 -4 -7 -7.5t-8 -4.5q-10 -3 -17.5 3t-5.5 15q0 90 2 139q9 112 27 209q38 229 152 500q27 67 57 135
q33 70 72 123v2l24 22q8 0 8 3z" />
    <glyph glyph-name="parenright" unicode=")" horiz-adv-x="393" 
d="M86 -82q-12 -4 -19.5 2t-5.5 17l2 2q2 6 4.5 16t4.5 16q11 31 31.5 86.5t36.5 101t30 85.5q30 88 82 270l43 174q41 154 47 281q0 2 12 112q0 9 5 18t16 9h-2q11 2 15.5 -3.5t4.5 -13.5v-8q0 -4 -2 -6q-2 -19 -6.5 -80.5t-9 -98.5t-10.5 -69q-24 -122 -72 -301
q-15 -58 -53 -192q-16 -55 -95 -270l-30 -93q-3 -7 -9.5 -21.5t-9.5 -21.5q-2 -4 -5.5 -7t-4.5 -3t0 -2z" />
    <glyph glyph-name="asterisk" unicode="*" horiz-adv-x="245" 
d="M240 1255q14 -14 0 -24q-3 -8 -19 -8l-45 14q-2 0 -2 -2q0 -29 -2 -43v-2q0 -10 -12 -14q-10 -7 -21 4q-1 4 -2 12t-2 12q-22 -17 -43 -45v2q-4 -7 -12 -10t-12 2q-12 9 -2 25h-3q5 9 13 17.5t19 18.5t14 13h-3l17 18v2h-2q-8 2 -20.5 7t-16.5 6q-8 0 -11 6t1 12
q2 4 7.5 8t6.5 6h6q10 1 21.5 -2.5t13.5 0.5q2 2 1.5 5t-0.5 11.5t3 16.5q1 2 2.5 4t3 3t2.5 2t3 2l1 1q6 4 13.5 0.5t9.5 -8.5q1 -4 1.5 -15.5t2.5 -17.5q7 4 21 16t22 17l14 2q9 -1 10.5 -8.5t-3.5 -13.5q0 -7 -5 -7l-4 -6q-4 -3 -11 -7.5t-10 -7.5t-3 -7q2 -3 11.5 -5
t14.5 -5z" />
    <glyph glyph-name="plus" unicode="+" horiz-adv-x="321" 
d="M147 375q-6 12 -4 24l-2 -2l6 60q6 36 2 39.5t-36 -4.5q-15 -3 -31 -3q-3 0 -5.5 0.5t-4.5 0.5h-3.5t-2 -0.5t-0.5 -2.5q-8 13 -0.5 25t20.5 12h-2q8 1 21 4t23 4.5t19 2.5q15 3 15 12q2 12 10 41v-2l6 43q3 23 27 20q6 -6 10 -16l-4 -17q-4 -20 -6 -32q-6 -34 -2.5 -39
t37.5 -2q57 4 79 -8v-1q6 -10 0 -18q-1 -7 -8 -11t-12 -1q-30 7 -86 -2q-15 -1 -18 -4t-5 -17l-12 -75q-5 -19 -6 -21q-3 -10 -16 -10h-9z" />
    <glyph glyph-name="comma" unicode="," horiz-adv-x="165" 
d="M88 72q-12 -8 -21.5 -2t-3.5 22q0 1 5 6l-2 -2q4 5 10 10l6 5q13 17 20 30l2 2q3 3 0 13q-27 34 15 59q19 11 33.5 4t13.5 -26v-3q0 -6 -2 -10v-2q-19 -54 -55 -94q-5 -8 -21 -12z" />
    <glyph glyph-name="hyphen" unicode="-" horiz-adv-x="344" 
d="M76 489q-11 7 -13 11q-4 4 3.5 13t15.5 9h-2l39 6h2h80q2 0 116 7q11 0 17 -3q13 -3 10 -16q0 -12 -14 -16q-18 -6 -25 -6q-37 -1 -111 -2.5t-112 -2.5h-6z" />
    <glyph glyph-name="period" unicode="." horiz-adv-x="116" 
d="M82 106q-11 0 -16.5 7.5t-2.5 19.5q6 25 29 25q12 0 19 -7t6 -18q-1 -10 -12 -18.5t-23 -8.5z" />
    <glyph glyph-name="slash" unicode="/" horiz-adv-x="538" 
d="M88 -147q-11 -2 -19.5 7t-7.5 19q1 8 11 37q199 586 243 725q20 64 45 134t58.5 162t48.5 134q25 68 47 94q9 9 18 6q7 -3 7 -16q0 -11 -7 -25q-127 -396 -206 -630q-33 -97 -99.5 -291.5t-99.5 -292.5q-11 -28 -21 -49q-7 -14 -18 -14z" />
    <glyph glyph-name="zero" unicode="0" horiz-adv-x="327" 
d="M135 193q-20 -19 -39 -17.5t-28 23.5q-2 7 -7 39q-2 30 7 106q18 207 90 383q31 59 41 72q20 29 37 39h-3q29 22 52 8q5 -2 8 -8.5t2 -12.5q-1 -9 -9 -14t-16 -2q-13 8 -24 -8l-2 -2q-15 -17 -37 -54q-30 -61 -51 -129q-44 -152 -47 -260q-1 -14 -4 -50t-3 -56
q-3 -26 4 -29q7 -1 12.5 5.5t12.5 21.5q12 19 24 43t19 40t19.5 46.5t17.5 42.5q34 94 57 192q17 65 19 111q0 7 -4 27q0 11 -11 0l-8 -9l-10 -10q-15 -3 -21 7t0 22v-2q12 34 54 43q13 0 24 -8q16 -16 13 -35q6 -32 0 -68q-35 -211 -134 -414q-27 -48 -30 -53v-2
q-12 -15 -25 -28z" />
    <glyph glyph-name="one" unicode="1" horiz-adv-x="360" 
d="M344 905q9 0 12.5 -5t3.5 -11v-6q-3 -26 -20 -54q-20 -41 -37 -104l-70 -248q-6 -25 -18 -73l-18 -72q-30 -112 -56 -162q-3 -6 -2.5 -7t8.5 -3q23 0 31 10q16 10 27 2q5 -8 4.5 -13t-3.5 -11t-3 -7q-15 -18 -37 -18q-22 -3 -43 0q-14 -4 -43 -4q-15 0 -19 18q0 6 9 15h2
q20 13 33.5 32t18.5 34t13 44l86 318q1 3 29 102v-2v8q-17 -17 -49 -53l-2 -2l-5 -3q-4 -3 -7.5 -4.5t-9 -1t-9.5 4.5q-5 5 -3.5 10t5.5 11t4 7q32 31 79.5 108t55.5 101v-2q3 15 13 29v-2q7 14 20 14z" />
    <glyph glyph-name="two" unicode="2" horiz-adv-x="520" 
d="M98 115v2q-19 -9 -32 4v2q-12 18 6 39v-2q13 23 43 26q26 3 47 35q139 197 235 377q39 70 74 172q15 54 8 84q-5 23 -30 12l2 2q-20 -10 -23 -12q-118 -77 -133 -215q-4 -35 12 -45l-2 2q10 -5 9.5 -14.5t-11.5 -14.5q-4 -4 -16 -4q-24 7 -27 29v2q-4 32 -2 49
q19 146 141 234q28 20 47 26q25 8 44 0t26 -31q8 -30 -6 -94q-25 -105 -90 -219q-108 -191 -213 -342q-3 -6 -9.5 -13t-7.5 -9q-8 -10 -7 -13t14 -6q60 -17 88 -22h37q43 0 67 34q3 2 8.5 8.5t8.5 8.5q8 8 20 8q7 -3 9 -11.5t-3 -15.5q-18 -46 -67 -65q-47 -17 -89 -8
l-52 12t-60 16h2q-20 3 -27 -6q-15 -11 -41 -22z" />
    <glyph glyph-name="three" unicode="3" horiz-adv-x="401" 
d="M188 145q-34 -21 -63.5 -16t-48.5 35q-22 37 -8 76q26 77 100 118q38 23 51 -20q0 -11 -8 -19q-11 -11 -21 -2q-13 7 -30 -10q-48 -42 -51 -82q-4 -22 4 -35h-2q22 -32 61 -10q29 16 47 43q65 83 80 174q9 49 0 84q-6 19 -14.5 22.5t-30.5 -3.5q-6 0 -18 -8
q-25 -12 -33 4q-6 8 6 32q22 31 43 66q69 115 102 209q11 28 11 47q-4 15 -17 8l2 2q-26 -13 -33 -20v-2q-87 -70 -90 -142v-2q0 -1 -1 -4.5t-1 -5.5q-8 -8 -12 -10q-10 -7 -23 6q-3 22 3 41q30 98 126 164h3q12 6 14 8q31 12 49.5 0.5t15.5 -43.5q0 -30 -16 -70
q-45 -113 -94 -190q-10 -15 -21 -37l-2 -2q-1 -2 -2 -3q1 1 2 1q60 6 72 -62q11 -64 -8 -129q-21 -75 -72 -145q-27 -43 -72 -68z" />
    <glyph glyph-name="four" unicode="4" horiz-adv-x="342" 
d="M330 643q-18 -44 -41 -125.5t-33 -109.5v-7q4 1 11.5 3t15 3t14.5 1q19 5 25.5 2.5t5.5 -15.5q1 -6 -1.5 -10.5t-7 -7t-8 -4t-9.5 -3.5l-5 -1q-5 -1 -19.5 -5t-21.5 -6q-17 0 -25 -22q-14 -68 -30 -115q-2 -10 -5 -21t-7.5 -23t-6.5 -19q-1 -9 -9.5 -13.5t-14.5 0.5
q-8 4 -8 13q0 10 4 22q25 95 39 139v-2q0 5 4 21q0 8 -4 8l-39 -6q-41 -7 -66 -4q-17 0 -23.5 11t1.5 26q7 21 16 39q58 107 113 293q7 24 18 71.5t16 67.5v2q12 30 17 35l2 2q8 4 18 2q4 0 4 -4q5 -11 4 -15v-2q-7 -24 -29 -109t-38 -130q-35 -114 -88 -219
q-15 -30 -12.5 -32t36.5 5q13 3 54 8q16 3 22 23q21 74 45 147q41 113 43 119q3 22 29 22q2 -4 3.5 -8.5t1.5 -9t-0.5 -8t-2 -8.5t-2.5 -7.5t-3.5 -7.5t-2.5 -6zM270 883v-2v2z" />
    <glyph glyph-name="five" unicode="5" horiz-adv-x="505" 
d="M135 158q-34 -11 -55.5 4t-18.5 47q-3 14 5 29q19 49 51 88q20 20 37 8q7 -5 4.5 -14t-11.5 -17q-10 -10 -34 -53v2q-11 -27 -11 -45q0 -10 13 -10q14 0 35 8q15 9 38 35q67 73 97 172q7 33 4 71q-9 59 -66 37q-29 -7 -63 -35q-15 -11 -25 -4q-6 3 -7 10t5 15l-2 -2
q16 33 31 70t33 83.5t28 71.5q23 58 29 76q0 2 -2 0l-33 -12q-11 -3 -17 0t-5 12q0 7 5 15t11 9q46 22 82 25q129 17 174 27q4 1 9 1t10 -0.5t8 -0.5q12 0 12 -9q0 -19 -17 -22q-45 -11 -53 -12q-12 -2 -36 -6.5t-44 -7.5t-37 -5q-24 -3 -32 -26q-5 -15 -17.5 -45t-17.5 -46
l-55 -137l-4 -12l1 -2q4 4 9 6h2q27 8 57 8q52 -3 64 -49q9 -31 0 -90q-24 -118 -115 -217q-32 -38 -76 -51z" />
    <glyph glyph-name="six" unicode="6" horiz-adv-x="399" 
d="M379 838q15 -9 18.5 -29.5t-6.5 -40.5q-12 -8 -16 -8q-11 -4 -17 6q-2 8 2 27q0 6 -8 10q-4 2 -18 -6h2q-25 -21 -41 -47q-55 -86 -94 -166q-60 -132 -95 -287q-5 -37 -2 -61q3 -16 13 -3q13 9 28 31q24 41 41 101v-3q0 4 1 11.5t1 11.5l-2 10q-6 0 -10 -8
q-1 0 -2.5 -1.5t-4.5 -4t-5 -4.5q-4 -2 -14 -2q-15 3 -15 20q1 2 2 6.5t2 6.5q18 30 54 30q30 0 36 -37v-12q-9 -89 -71 -172q-21 -21 -35 -27q-19 -11 -35 -5t-22 26q-7 29 -3 47q1 12 11 61q53 242 188 443q25 43 55 67q36 25 62 9z" />
    <glyph glyph-name="seven" unicode="7" horiz-adv-x="421" 
d="M328 682l-13 -27q-3 -11 -2.5 -12t11.5 -4q8 0 12 -4q13 -6 4 -21q-9 -13 -16 -4l-2 -6q-18 3 -27.5 -6t-20.5 -31q-62 -139 -127 -325q-20 -52 -34 -95q-12 -24 -15 -28q-11 -17 -28 -10q-7 3 -7 14q-3 7 3 16l122 324q11 28 45 102q6 15 9 27l1 3l-1 -1h-33
q-23 -6 -33 12q2 6 4.5 10t5.5 6.5t6 4t7 2t6 0.5h6h4q40 4 47 10q4 3 23 43q4 8 75 164q7 10 7 14v2q3 4 2 5t-7 -1l-131 -18q-28 -7 -38 4h2q-15 11 6 25q13 8 32 10q68 5 160 26q19 5 26.5 -5t-1.5 -29q-14 -33 -44 -97.5t-44 -97.5z" />
    <glyph glyph-name="eight" unicode="8" horiz-adv-x="358" 
d="M346 815q15 -18 12 -47q-11 -42 -16 -51q-35 -68 -55 -101q-44 -65 -47 -133q-2 -53 -23 -123q-8 -42 -37 -98q-20 -34 -43 -51q-25 -17 -46 -12t-25 30q-10 37 2 66q22 61 61 131q10 20 32.5 56.5t28.5 47.5q21 41 19 64q-2 35 -2 108q0 41 20 86q12 24 31 37
q28 18 47 -4h-2q8 -4 8 -10q7 7 15 10q8 0 20 -6zM313 750q6 19 -4 43q-12 -17 -28 -9q-14 5 -19 -8q-4 -7 -10 -33q-6 -41 -2 -110q37 53 63 117zM248 633v-2q0 2 2 2h-2zM152 291q33 75 41 135q6 21 6 41l-25 -41q-10 -22 -30 -60t-27 -53q-15 -37 -15 -57q2 -12 7 -12
q8 -3 16 8q15 15 27 39z" />
    <glyph glyph-name="nine" unicode="9" horiz-adv-x="346" 
d="M338 928q6 -1 7.5 -8t-1.5 -13q-29 -86 -39 -108q-69 -179 -127 -404q-7 -25 -20.5 -70t-18.5 -63q-16 -57 -26 -129v2q0 -24 -19 -37h2q-12 -6 -16 -6q-6 0 -10.5 5.5t-3.5 11.5v-3q0 11 4 31l43 185q66 223 67 227q13 48 39 123l2 8q-1 -2 -3 -5t-3 -5q-3 -4 -25 -34.5
t-34 -45.5q-31 -31 -37 -35q-22 -15 -40 -9.5t-18 29.5q5 36 11 48h-2q27 84 73 153q8 14 33 39h2q30 21 58 4q11 -11 14 -12q9 12 37 65q16 32 24 46q4 9 12.5 12t14.5 -2zM217 748q3 6 0 18v2q-3 14 -12 18q-10 -3 -21 -16l-6 -6q-48 -73 -74 -160v2v-8q0 -2 2 -4
q61 61 109 154h2z" />
    <glyph glyph-name="colon" unicode=":" horiz-adv-x="161" 
d="M127 590q-21 0 -18 26q6 25 28 25q12 0 19.5 -7.5t5.5 -17.5q-1 -10 -12 -18t-23 -8zM84 385q-12 -1 -19 9t-2 22q9 21 31 18q15 -6 12 -26q-2 -9 -8.5 -16t-13.5 -7z" />
    <glyph glyph-name="semicolon" unicode=";" horiz-adv-x="172" 
d="M143 629q-16 3 -20 22q-1 10 8.5 19.5t20.5 9.5q20 0 20 -23q1 -10 -8 -19t-19 -9h-2zM66 354l-3 2q-5 10 5 29v-2q13 29 6 43v-2q-6 6 -2 16q3 22 26 29h2q18 0 25 -18q3 -8 0 -21q-3 -7 -10 -26.5t-13 -30.5v2q-5 -14 -17.5 -21t-18.5 0z" />
    <glyph glyph-name="less" unicode="&#x3c;" horiz-adv-x="370" 
d="M371 707q1 -6 -1 -11t-6.5 -10t-5.5 -6v-2q-20 -16 -55 -46t-45 -38q-47 -44 -137 -109q-8 -7 -7 -8l5 -4q68 -37 166 -98l8 -4q1 -1 14 -6t18.5 -15t0.5 -28q-9 -4 -17 -5t-14.5 1.5t-10.5 5t-10.5 7t-7.5 5.5l-94 57q-62 36 -78 45q-12 6 -24 15q-20 19 4 43q3 5 10 9
t8 5q121 84 234 188q2 1 6.5 6.5t10 9.5t11.5 5h2h9q6 -3 6 -12z" />
    <glyph glyph-name="equal" unicode="=" horiz-adv-x="376" 
d="M109 582q-12 8 -13 10q-5 5 2.5 13.5t16.5 8.5h-2l39 7h81q42 2 117 6q13 0 17 -2q13 -3 10 -17q0 -11 -15 -16q-18 -6 -26 -6q-37 -1 -110.5 -2t-110.5 -2h-6zM76 397q-11 7 -13 11q-5 5 2.5 13.5t16.5 8.5h-2l39 6h82q52 2 116 6q13 0 17 -2q13 -3 10 -16
q0 -12 -14 -16q-21 -7 -25 -7q-38 -1 -112 -2t-111 -2h-6z" />
    <glyph glyph-name="greater" unicode="&#x3e;" horiz-adv-x="370" 
d="M362 573q20 -19 -4 -43q-3 -5 -10 -9t-8 -5q-121 -84 -234 -188q-2 -1 -6.5 -6.5t-10 -9.5t-11.5 -5h-2h-8q-7 3 -7 12q0 6 2 11t7 10l4 6l2 2q17 14 49 42t49 42q42 38 137 109q8 6 8 6.5t-4 5.5q-38 20 -168 98l-8 4q-1 1 -14 6.5t-18.5 15.5t-0.5 28q9 4 17 4.5
t14.5 -2t11 -5t10 -7t7.5 -5.5q18 -10 50 -30t44 -27q62 -36 78 -45q12 -6 24 -15z" />
    <glyph glyph-name="question" unicode="?" horiz-adv-x="430" 
d="M420 965q4 -3 6.5 -7.5t3.5 -8t0 -9.5t-1.5 -8.5t-2.5 -9t-2 -7.5q-2 -7 -10 -22.5t-11 -22.5q-34 -62 -45 -86q-113 -209 -168 -354q-44 -117 -57 -188q-5 -16 -4 -28t16 -19q0 -16 -10 -23q-8 -8 -20 -8q-25 3 -25 35q1 10 4 30.5t4 30.5q13 65 76 225q51 128 168 344
l37 70q2 5 5.5 14t4.5 13q0 1 1 2t1 2q-1 -1 -3 -1t-3 -1l-12 -6h2q-164 -110 -232 -269q-14 -44 -12 -67q-2 -11 -7.5 -17.5t-14.5 -5.5q-14 5 -17 19q4 36 12 61q28 84 101 172q50 61 131 121q15 12 35 22q1 0 6.5 3t8 4t8 3t9 2t8.5 -1t9 -4zM104 119q9 0 16.5 -6.5
t4.5 -12.5q-1 -3 -4 -11.5t-5.5 -13.5t-7.5 -11.5t-12 -10.5q-6 -6 -20 -2q-4 0 -8 4l-2 2q-9 16 6 41q15 24 34 21h-2z" />
    <glyph glyph-name="at" unicode="@" horiz-adv-x="993" 
d="M582 45q-69 -37 -142.5 -45t-153.5 26t-139 115q-117 161 -75 371q25 127 84 231q80 146 221 228q191 110 395 49q164 -48 213 -213q12 -43 6 -86q-15 -148 -104 -258q-46 -56 -103 -72q-53 -15 -94.5 7.5t-58.5 74.5q-3 10 -8 32t-7 30q-9 -2 -16.5 -7.5t-11.5 -10
t-10.5 -12.5t-8.5 -11q-70 -70 -92 -88q-56 -37 -84 -44q-40 -9 -71 11t-35 61q-3 25 4 53q43 135 172 193q39 17 80 8q30 -10 35 -37q0 -8 -5 -18q-7 -11 -18 -4q-16 11 -33 12t-30 -4t-31 -16q-89 -53 -117 -142q-12 -37 6 -55q19 -19 56 0q39 18 79 61q105 105 166 201
q1 1 3 4.5t3 5l3 4.5l3 4.5t3.5 3.5t4 3t4 2.5t5 1.5t6 0.5t6.5 -0.5q22 -5 10 -53q-4 -16 -8 -34.5t-8.5 -41.5t-7.5 -35q-8 -35 8 -72q9 -23 30 -33.5t46 -5.5q49 13 74 45q99 116 102 256q3 139 -141 211q-104 53 -242 27q-213 -38 -340 -240q-91 -146 -100 -321
q-6 -155 98 -271q54 -61 122.5 -81.5t124.5 -9.5t107 40q78 47 164 137q9 10 21 32t18 30q12 20 29 8q19 -6 16 -27q-9 -41 -37 -69q-99 -110 -196 -162z" />
    <glyph glyph-name="A" unicode="A" horiz-adv-x="1064" 
d="M90 -188q-44 -23 -70 18l-6 12q-34 99 13 195q17 32 49 26q19 -6 22 -22q2 -11 -16 -16q-20 -3 -27 -27q-17 -54 -4 -119q2 -11 12.5 -14t18.5 6q28 28 51 61q45 60 135 215l246 424q16 27 16 41q-112 44 -213 39q-27 0 -59 -14q-54 -25 -6 -64q2 -2 6.5 -4t5.5 -4
q5 -5 2 -12q0 -1 -10 -6q-35 -3 -53 33q-15 34 8 63q19 24 55 37q65 19 125 8q84 -14 139 -26q24 -6 32 -3t22 25q153 232 170 258q54 85 209 252q23 23 43 33q15 8 31.5 1t23.5 -24q12 -31 2 -71q-12 -67 -27 -132q-73 -301 -94 -440q-30 -198 -33 -352q-3 -70 15 -160
q10 -67 41 -112q10 -14 16.5 -20.5t20.5 -11t28 6.5q13 6 24 -3.5t13 -25.5q1 -17 -7 -30t-22 -15q-25 -3 -45 8q-65 28 -98 105q-34 92 -37 211q-4 111 19 313q0 7 2 20.5t2 20.5q3 25 -25 25q-94 2 -221 43q-29 9 -40 5t-26 -32l-196 -334q-64 -113 -150 -254
q-25 -39 -88 -119q-20 -27 -45 -38zM834 596h14q30 2 37.5 8.5t13.5 36.5q44 185 90 397q5 18 19 86q5 19 -9 21q-8 4 -16 -8q-7 -8 -35.5 -38t-41 -44t-32.5 -38.5t-34 -45.5q-61 -87 -191 -285q-3 -4 -18 -29q-3 -8 0 -15.5t12 -8.5q129 -37 191 -37z" />
    <glyph glyph-name="B" unicode="B" horiz-adv-x="931" 
d="M309 -207q-47 -5 -78 29.5t-22 81.5q4 29 31 73q31 44 88 109q167 178 346 307q11 6 33 23q29 22 33 40.5t-15 49.5q-30 43 -84 49q-91 6 -174 -35q-8 -4 -23.5 -13t-23.5 -13q-2 -1 -8.5 -5t-9.5 -5.5t-8.5 -3.5t-9.5 -1.5t-9 2.5t-10 6q-17 19 22 58q42 36 45 39
q123 107 135 118q93 83 168 201q65 95 92 207q6 17 5 37.5t-17 30.5q-7 4 -13 5.5t-14 -0.5t-11 -3t-13.5 -6.5t-11.5 -6.5q-53 -26 -123 -92q-75 -75 -146 -184q-69 -101 -161 -270q-133 -250 -216 -439q-26 -62 -43 -82q-13 -20 -34 -14t-25 31q-8 66 2 145
q38 329 144 627q11 31 22 66t24 77.5t21 67.5q5 12 14 43q4 12 13.5 17.5t17.5 2.5q20 -9 17 -33q-7 -40 -17 -65l-67 -211q-104 -295 -138 -618q9 3 15.5 8t9 9t5 11.5t3.5 9.5q72 161 186 373q79 149 168 283q72 109 156 190q53 53 123 92q45 25 76 25q33 0 54.5 -16.5
t27.5 -46.5q8 -33 -2 -74q-24 -106 -80 -199q-70 -113 -166 -209l-53 -51q-1 -2 -7.5 -8t-7.5 -8.5t0 -10.5q2 -3 5.5 -5t6 -2t7 0.5t6.5 0.5q8 -1 34 -1.5t40 -2.5q60 -6 100 -61q3 -5 18 -35q12 -18 13 -21q3 -20 4 -34.5t-1 -26.5t-2.5 -16.5t-5 -17t-4.5 -13.5
q-86 -265 -280 -465q-40 -45 -115 -92q-42 -23 -82 -29zM301 -152q19 0 57 17q53 31 107 82q134 131 246 370q5 19 0 27q-7 1 -13 -1.5t-13 -8t-9 -6.5q-188 -138 -338 -314q-26 -30 -57 -73q-16 -22 -19 -50q-3 -18 8.5 -30.5t30.5 -12.5z" />
    <glyph glyph-name="C" unicode="C" horiz-adv-x="874" 
d="M180 -20q-76 30 -119 96q-64 98 -61 252q0 64 25 176q57 246 172 426q115 181 297 284q67 38 131 54q15 4 45 8q119 8 141 -113q11 -49 -2 -106q-16 -72 -49 -131q-52 -92 -148 -215q-6 -9 -14 -17t-19 -8.5t-16 6.5q-7 14 8 29q62 79 117 172q47 71 68 151q13 48 8 86
q-3 55 -33.5 78t-83.5 11q-50 -13 -112 -43q-159 -85 -265 -234q-116 -160 -180 -393q-24 -88 -37 -199q-13 -120 39 -221q57 -112 197 -115q43 0 104 21q182 63 307 174q95 80 197 201q25 30 41 43q17 12 31 -2q15 -12 4 -31q0 -1 -17 -23q-137 -157 -217 -225
q-142 -125 -329 -188q-125 -44 -230 -4z" />
    <glyph glyph-name="D" unicode="D" horiz-adv-x="894" 
d="M293 2q-28 -6 -46.5 10t-17.5 45q2 38 27 82q39 67 94 129q153 175 352 297q69 44 103 119q79 197 92 313q6 47 6 95q0 40 -18 77q-18 41 -60 29q-25 -8 -67 -29q-104 -58 -191 -157q-74 -85 -147 -215q-129 -227 -256 -508q-43 -102 -78 -178q-15 -34 -33 -52
q-12 -10 -27.5 -5t-21.5 20q-6 20 -2 59q5 156 53 338q19 75 101 340q14 42 40.5 118t47 138.5t35.5 118.5q6 31 30 28q11 0 17 -12t2 -31q-5 -28 -27 -96q-8 -25 -35 -104.5t-41 -124.5q-105 -322 -135 -455q-6 -30 -14 -85.5t-10 -65.5q0 -3 2 -7t4 -4q3 0 6.5 2.5
t3.5 4.5q11 22 31 67q98 226 239 485q66 123 156 236q96 119 221 193q48 25 80 32q90 21 127 -61q20 -47 20 -103q2 -112 -47 -276q-91 -335 -428 -682q-55 -55 -114 -94q-44 -27 -74 -31zM303 63q37 10 90 56q156 138 291 342q10 14 4 22q-2 2 -7.5 0.5t-6.5 -1t-5.5 -2
t-5.5 -3t-5 -4t-5 -4.5q-163 -116 -280 -256q-33 -41 -66 -92q-11 -20 -18 -43q-4 -8 4 -12q7 -6 10 -3z" />
    <glyph glyph-name="E" unicode="E" horiz-adv-x="780" 
d="M176 -141q-25 -3 -59 4q-46 7 -75.5 37.5t-37.5 76.5q-11 63 6 142q5 23 41 182q3 17 1 21.5t-19 11.5q-5 3 -19 8q-6 4 -6 15t6 16q18 12 23 12q43 7 57 66q45 140 146 360l75 156q1 3 6.5 12.5t8 17.5t2.5 17q-8 4 -16.5 4.5t-18.5 -1t-14 -1.5q-25 0 -25 16
q0 18 21 25q5 1 15 4t15 4q55 12 78 25q8 8 19 8q43 0 120 16t97 19t79 12.5t99.5 14t79.5 5.5q20 2 61 -2q10 -1 17.5 -10t5.5 -18q-2 -10 -10.5 -17t-18.5 -6q-7 0 -27.5 3.5t-31.5 2.5q-15 -2 -43 -4t-43 -4l-318 -53q-24 -6 -27 -6q-43 -3 -63 -52l-104 -217
q-73 -162 -121 -305q-1 -3 -4 -10t-4.5 -11t-3 -10t-0.5 -11t4 -9q6 -8 14.5 -8.5t23 4.5t17.5 6q48 11 143.5 35t143.5 35q40 10 43 -15q3 -11 -5.5 -21t-25.5 -16l-33 -6q-168 -44 -311 -78q-43 -9 -51 -47q-8 -36 -26 -112t-26 -117q-4 -23 -4 -72q3 -102 107 -102
q46 0 92 12q58 11 129 35q124 47 313 121q12 4 19 4q13 0 20 -14q4 -13 2 -19q-8 -19 -28 -26q-34 -12 -137 -52.5t-173.5 -64t-140.5 -39.5q-26 -6 -80 -10z" />
    <glyph glyph-name="F" unicode="F" horiz-adv-x="681" 
d="M31 -145q-24 3 -21 30q1 4 4 15t4 18l74 326q4 12 8 32q4 23 -1 30t-27 7q-16 -2 -54 -2q-14 0 -18 17q-3 21 14 28q21 7 60 11q53 5 67 61q27 123 72 272q35 126 84 246l4 8t4 9.5t2.5 8.5t1.5 9.5t-2 9.5q-6 3 -13.5 3.5t-12.5 0t-14 -2t-13 -1.5q-184 -42 -188 -43
q-21 -6 -48 -6q-4 0 -8 8q0 9 2 13q7 12 29 16q21 5 102 25.5t125 29.5q8 1 22.5 4t17.5 3.5t12.5 3.5t10.5 3t7.5 5t6.5 6.5t5 9t6 12t6 16.5t9 21q7 26 14 39q9 15 29 12q9 -3 15 -12.5t3 -19.5l-12 -37q-1 -4 -3 -11.5t-2 -10.5t1 -11q5 -4 11 -5t15.5 0t12.5 1
q265 36 352 45q87 10 266 18q15 3 27 0q29 0 33 -16q3 -9 -5.5 -17.5t-25.5 -9.5q-58 -4 -88 -4q-206 -10 -512 -51l-88 -12q-30 -3 -43 -35q-58 -126 -80 -207q-24 -79 -94 -336q-4 -20 -4 -32q0 -13 12 -13q14 0 20 2q182 31 211 37q4 1 15 3t16 3t14.5 3.5t15 4.5t13 6
t14.5 9q15 15 29 -2q16 -16 2 -37q-19 -24 -57 -31q-33 -6 -103 -19.5t-108 -19.5q-31 -6 -86 -14q-33 -6 -39 -39q-3 -16 -10.5 -44t-10.5 -40q-8 -34 -21.5 -93t-25 -109t-22.5 -93q-2 -16 -15 -51q-6 -17 -26 -14z" />
    <glyph glyph-name="G" unicode="G" horiz-adv-x="1157" 
d="M1253 440q6 -6 6.5 -17t-6.5 -20l-18 -18q-13 -13 -45 -41q-153 -134 -377 -362q-47 -47 -63 -101q-25 -89 -80 -205q-32 -71 -76 -127q-27 -38 -68 -65q-21 -15 -49 -21q-35 -4 -52.5 13.5t-14.5 52.5q3 41 24 76q11 19 60 90q102 134 194 231q36 39 47 86
q60 227 131 582q5 34 0 45q-11 0 -18 -4.5t-14.5 -16t-8.5 -12.5l-209 -246q-148 -169 -278 -278q-59 -50 -121 -86q-47 -28 -86 -33q-60 -8 -98 45q-30 42 -33 107q-2 38 14 112q93 392 320 674q86 107 166 164q73 56 137 68q40 8 59 8q84 0 109 -82q18 -50 4 -119
q-8 -40 -25 -90q-42 -114 -120 -240q-17 -30 -35 -39q-5 -3 -19 2q-10 7 -6 19l21 35q55 92 100 202q22 65 31 103q6 25 6 74q-3 53 -29.5 71t-79.5 4q-70 -16 -135 -69q-75 -59 -145 -148q-217 -271 -307 -649q-11 -61 -11 -65q-4 -32 2 -54q9 -60 38 -74.5t83 13.5
q47 23 111 76q138 112 262 258q53 62 158.5 186.5t158.5 185.5q18 24 39 45q14 11 33 2q10 -5 10 -22q0 -9 -4 -33q-88 -452 -131 -629q-8 -21 -2 -32q12 -3 29 14q149 155 354 336q15 15 21 18q18 15 36 0zM649 -193v3v-3zM651 -229q10 20 -4 34q-5 -12 -21 -31t-20 -24
q-80 -103 -104 -137q-33 -47 -35 -78q0 -6 4 -10q5 -5 12 -2q28 11 62 49q59 74 106 199z" />
    <glyph glyph-name="H" unicode="H" horiz-adv-x="804" 
d="M442 -301q-16 5 -16 27q0 8 2 12q9 21 17 45t13 41.5t12 48.5t9.5 43.5t9.5 49t9 44.5q74 366 112 516l8 39q0 17 -16 17h-14q-169 -13 -320 -27q-3 0 -39 -6q-33 -3 -39 -39q-10 -50 -32.5 -150.5t-32.5 -150.5q-29 -142 -35 -178q-8 -42 0 -66q14 -34 -14 -96
q-7 -22 -33 -16q-20 8 -20 24q0 49 2 74q17 144 57 309l51 242q3 17 -3 22t-24 0q-7 -1 -63 -16q-6 -2 -20 -2q-20 0 -23 20q-4 16 10 23q10 4 31 11t31 11q6 3 38.5 8t41.5 21q10 16 24 76q55 222 100 348q4 9 11.5 27.5t11.5 27.5q14 21 35 11q19 -9 12 -29
q-2 -7 -7 -21.5t-7 -21.5q-50 -138 -107 -361l-6 -26q-3 -25 23 -25q3 0 9.5 1t10.5 1q60 5 172.5 15t161.5 14q31 3 38 9.5t15 35.5q92 322 123 412q25 76 70 186q13 36 28 45q6 6 19 6q12 -2 16 -18q3 -14 -10 -45q-72 -170 -133 -379l-55 -201q-6 -23 0 -30.5t28 -4.5
q16 2 99 17q3 0 7.5 1t6.5 1q10 1 18.5 -5.5t10.5 -15.5q3 -20 -15 -26q-24 -10 -45 -13q-35 -6 -98 -14q-39 -3 -45 -41q-43 -167 -66 -272q-16 -73 -46.5 -224t-47.5 -229q-5 -28 -27 -96q-11 -26 -14 -31q-14 -14 -31 -6z" />
    <glyph glyph-name="I" unicode="I" horiz-adv-x="614" 
d="M25 -178q-17 -3 -25 16q-4 19 8 25q22 15 41 20q59 18 98 25q21 6 27 26l14 46q17 59 48.5 174t58 206t53.5 172q70 218 144 435q2 6 7 23.5t7 27.5q2 7 -3.5 12t-13.5 2q-3 -1 -24 -6t-26 -6t-23.5 -6t-25 -7.5t-23 -7.5t-24.5 -8.5t-22 -10t-24 -12t-21.5 -13
t-21.5 -15.5q-6 -6 -10 -6q-17 -3 -25 8q-10 10 -2 25t35 30q53 33 115 52q86 28 129 38q38 6 49 39l6 13q18 28 35 24q18 -3 22 -30q0 -7 5.5 -11t13.5 -2q29 8 85.5 22t101 26.5t83.5 27.5q7 4 25 8q6 1 13 -6.5t7 -15.5q3 -18 -14 -27q-18 -10 -58 -22q-171 -48 -245 -66
q-27 -5 -42 -18t-22 -39q-7 -21 -32.5 -98.5t-34.5 -104t-32 -96.5t-34 -104.5t-31 -97t-32.5 -104.5t-28.5 -97.5t-30 -105.5t-27 -100q-6 -22 -19.5 -67t-19.5 -68q-6 -26 0.5 -34t29.5 -3q114 17 195 50q32 11 41 -7q7 -11 1.5 -23t-20.5 -20q-49 -23 -155 -43
q-94 -19 -152 -26q-51 -10 -123 -31q-20 -8 -32 -8z" />
    <glyph glyph-name="J" unicode="J" horiz-adv-x="714" 
d="M217 -113q-57 -38 -115 -24t-92 74q-19 35 -4.5 77.5t51.5 59.5q10 5 25 -6q13 -13 4 -25q-4 -8 -14.5 -23.5t-14.5 -21.5q-10 -19 2 -37q20 -32 56 -45q16 -7 41 0q27 11 65 45q56 53 103 133q78 128 145 322q85 267 129 540l6 52q-1 7 -2 18.5t-2 17.5q-3 20 -22 17
q-69 -7 -107 -14q-32 -5 -92 -13.5t-108 -16.5t-91 -18q-6 -2 -20 -2q-19 5 -21 13q-5 19 15 26q24 9 51 15q28 4 141.5 22.5t175.5 26.5q199 28 422 78q20 4 60 8q15 0 18 -15q4 -19 -10 -22q-27 -13 -51 -16q-87 -18 -289 -56q-23 -5 -27.5 -10.5t-1.5 -30.5
q5 -64 -14 -166q-50 -294 -135 -538q-54 -151 -134 -279q-46 -72 -84 -112q-34 -34 -59 -54z" />
    <glyph glyph-name="K" unicode="K" horiz-adv-x="1134" 
d="M143 -209q-17 0 -24 21q-5 11 0 45q16 129 22 186q3 28 -1.5 36.5t-30.5 20.5q-14 7 -56 21l-30 12q-22 9 -24 25.5t17 31.5q7 7 37 27q57 37 76 45q49 27 55 84q11 92 49 303q31 167 107 428q11 33 20 51q10 23 33 15q16 -8 13 -29q-6 -24 -15 -51q-78 -262 -112 -461
q-17 -94 -33 -199q-2 -12 -2 -38q0 -8 6 -11.5t12 0.5q6 3 17.5 10.5t17.5 10.5q174 127 278 219q244 210 412 500q54 98 68 153q8 20 24 15q19 -3 19 -25q-2 -25 -23 -78q-55 -126 -135 -237q-171 -245 -381 -412q-167 -136 -295 -221q-39 -26 -45 -72q-1 -18 -4 -52
t-4 -52q9 -11 21.5 -20.5t21.5 -15t26.5 -14t24.5 -12.5q61 -34 170 -63q87 -24 176 12q52 19 119 61q88 59 172 140l240 233q34 34 49 17q17 -20 -12 -54q-3 -4 -23 -24q-39 -37 -115.5 -111.5t-115.5 -111.5q-77 -77 -185 -144q-38 -23 -90 -47q-123 -57 -248 -18
q-99 27 -174 69q-21 12 -47 25q-11 6 -18.5 1.5t-9.5 -16.5l-19 -133q13 -52 -8 -84q-12 -12 -23 -12zM125 154q17 -7 25.5 -3t11.5 21q5 28 -6 39q-22 -7 -23 -8q-1 0 -12 -6t-16.5 -12.5t-10.5 -16.5q20 -12 31 -14z" />
    <glyph glyph-name="L" unicode="L" horiz-adv-x="575" 
d="M47 -156q-25 -7 -38 5.5t-7 37.5l6 27q48 131 139.5 412t145.5 424q70 192 180 403q1 2 5.5 10t6.5 11t6.5 8t10.5 8q4 4 12 0q8 0 12 -12q2 -13 -6 -33l-49 -103q-71 -141 -123 -288q-148 -435 -174 -523q-14 -45 -42.5 -129t-39.5 -118q-3 -9 -8.5 -26.5t-7.5 -25.5
q0 -2 2.5 -5t5.5 -3q4 -4 12 0q29 12 58.5 22t67.5 18t57.5 12t68 12t60.5 10q39 7 83 16.5t97 21t82 17.5q24 6 26 6q9 1 17 -8t6 -18q0 -15 -12 -21q-18 -9 -39 -12q-230 -54 -349 -70q-116 -16 -210 -59q-42 -21 -62 -27z" />
    <glyph glyph-name="M" unicode="M" horiz-adv-x="1497" 
d="M61 -215q-15 -17 -33.5 -12t-23.5 26q-4 20 -4 60q-2 88 35 272q9 44 21.5 94t21.5 85.5t27.5 96t26 84.5t30.5 95t28 86l129 409q18 53 29 68q16 23 35 12q19 -13 10 -35q-15 -36 -28 -77.5t-28 -92.5t-24 -79q-19 -60 -54.5 -168.5t-64.5 -198.5t-53 -170
q-60 -198 -82 -379q-4 -20 -4 -33q0 -1 -0.5 -6t0 -7t2.5 -4.5t6 -2.5q8 0 19 16q4 10 13.5 31t13.5 31q18 40 65.5 144.5t73.5 160.5q126 272 278 473q86 115 174 186q13 10 60 43q16 8 37 15q50 6 59 -41q6 -32 -2 -95q-19 -97 -57 -213q-59 -184 -78 -270
q-21 -90 -21 -133q0 -16 9 -23q13 -5 24 9q51 55 64 75q111 148 155 195q33 38 80 82q28 24 60 27q51 3 71 -39q15 -30 21 -64l24 -180q11 -71 29 -109q23 -51 53.5 -58.5t73.5 26.5q9 7 30 34.5t70 93.5t86 115q2 1 8 6.5t9 6.5q11 8 24 -2q14 -6 10 -21q-5 -18 -18 -37
q-176 -239 -223 -262q-44 -22 -78 -14.5t-66 45.5q-36 48 -43 88q-8 41 -26 151q-2 13 -8 50t-9 57q-4 22 -8 33q-15 42 -51 14q-9 -6 -18 -14.5t-20 -19t-17 -15.5q-77 -85 -160 -199q-24 -34 -66 -84q-28 -35 -55 -49q-31 -19 -54.5 -7.5t-29.5 46.5q-2 9 -2.5 26t-1.5 21
q4 81 35 197q12 44 80 264q34 116 41 168q4 14 4 47q0 6 -4.5 8t-9.5 0q-11 -4 -35 -18q-77 -61 -150 -146q-158 -196 -272 -436q-82 -172 -162 -348q-9 -18 -34 -72.5t-40 -83.5q-15 -30 -37 -55z" />
    <glyph glyph-name="N" unicode="N" horiz-adv-x="1175" 
d="M59 -311q-22 -5 -37 3.5t-18 28.5q-8 40 8 121q54 246 148 500q104 284 227 545q10 21 48.5 103.5t58.5 127.5q2 4 6.5 14.5t9.5 18t12 12.5q15 7 25 0q5 -2 10 -16q2 -16 -16 -51l-144 -316q-185 -402 -280 -739q-9 -36 -27 -107.5t-27 -107.5q0 -1 -6 -53q0 -2 3 -5.5
t6 -3.5q4 -4 10 3q29 29 41 45q45 62 76 110l178 299q102 168 159 248q64 86 136 158q3 3 16.5 14.5t19.5 16.5t17 13t20 13q41 23 71.5 10t39.5 -57q8 -45 4 -135q-7 -134 6 -234q7 -49 25 -84q15 -30 49 -24q28 2 74 30q22 16 96 99t113 133q5 10 26 31q10 10 25 -2
q14 -7 10 -23q-9 -22 -14 -29q-68 -89 -134 -161.5t-98 -94.5q-48 -32 -86 -37q-80 -9 -112 62q-14 32 -25 84q-13 89 -6 207v114l-6 54q-1 9 -10.5 13t-16.5 -1q-14 -9 -49 -35q-52 -45 -113 -123q-76 -96 -172 -256q-127 -212 -166 -274q-67 -108 -108 -170
q-9 -12 -29.5 -34t-28.5 -32q-20 -20 -45 -26z" />
    <glyph glyph-name="O" unicode="O" horiz-adv-x="1069" 
d="M307 -219q-125 -9 -201 96q-52 66 -77 156q-32 117 -29 225q-5 145 57 313q125 333 406 592q53 50 112 72q33 12 52 8q17 -3 20 -22q0 -10 -4.5 -18.5t-11.5 -8.5q-17 -2 -33 -6t-32 -13t-26 -14.5t-27 -21t-22.5 -20.5t-24.5 -24l-22 -22q-238 -241 -344 -545
q-85 -242 -20 -475q15 -61 49 -116q42 -68 97.5 -92t142.5 -3q53 15 116 54q82 51 142 120q44 51 100 136q120 194 197 409q39 108 49 250q6 68 -27 141q-32 70 -92 95.5t-137 3.5q-48 -12 -86 -50q-62 -62 -96.5 -113.5t-42.5 -117.5q-4 -14 -9 -25q-7 -18 -24 -18
q-9 2 -16.5 11t-6.5 18q7 66 27 110q57 114 147 189q92 74 221 55q85 -14 142 -94q62 -95 53 -211q-13 -155 -59 -281q-84 -231 -203 -413q-86 -131 -178 -209q-99 -78 -187 -107q-39 -11 -92 -14z" />
    <glyph glyph-name="P" unicode="P" horiz-adv-x="980" 
d="M68 -178q-19 -17 -38.5 -11t-25.5 29q-2 10 -2.5 29.5t-1.5 24.5q11 157 47 311q97 470 328 975q20 35 24 41q6 6 19 2q16 0 16 -19q0 -15 -6 -30q-9 -25 -47 -113q-183 -422 -268 -805q-39 -162 -52 -291q-2 -6 -2 -20q0 -15 4 -17q7 -6 17 9q37 66 41 75
q126 257 213 412q127 224 229 377q90 132 160 207q64 70 135 118q44 26 62 31q78 18 108 -51q16 -41 14 -66q0 -72 -2 -86q-39 -271 -186 -477q-87 -118 -199 -186q-57 -33 -100 -33q-71 0 -80 66q-16 86 39 149q29 36 86 64q2 2 6 2q20 3 29 -11q12 -17 -4 -30
q-35 -26 -49 -35q-55 -36 -58 -115q0 -44 45 -37q23 5 72 35q98 64 160 152q152 207 188 473q6 48 -2 88q-14 70 -76 37q-17 -9 -55 -37q-49 -37 -113 -109q-91 -104 -170 -231q-179 -278 -362 -643q-75 -150 -100 -195q-20 -39 -43 -59z" />
    <glyph glyph-name="Q" unicode="Q" horiz-adv-x="974" 
d="M305 -129q-91 12 -151 78q-69 75 -84 178q-12 88 2 215q45 375 260 651q47 58 86 94q38 30 71 37q17 3 31 -2q9 -5 11 -17t-5 -18q-6 -6 -10 -8q-27 -7 -52 -25t-40 -34t-37 -43q-179 -225 -237 -498q-28 -129 -33 -225q-3 -51 4 -115q12 -86 67 -149q38 -46 102 -61
t130 18q69 44 127 108q157 183 233 389q93 248 101 447q0 104 -21 176q-16 57 -58 100.5t-94 65t-110.5 21.5t-105.5 -25q-140 -72 -230 -180q-27 -32 -59 -115q-14 -38 -21 -49q-8 -16 -28 -6q-15 3 -15 18t2 21q43 142 127 217q71 65 166 125q65 41 143 46t146 -22
t121 -85t71 -134q23 -107 19 -166q-37 -510 -332 -860q-73 -86 -149 -133q-68 -44 -148 -35zM659 -346q-65 10 -71 12q-100 25 -182 70q-57 32 -76 39q-150 66 -273 -47q-4 -3 -13.5 -12.5t-16.5 -14.5q-5 -3 -19 2q-8 8 -8 16q0 21 27 48q130 121 288 71q42 -13 103 -47
q91 -49 180 -72q71 -19 111 0q15 9 26 -10q9 -16 -2 -31q-12 -15 -26 -18z" />
    <glyph glyph-name="R" unicode="R" horiz-adv-x="962" 
d="M25 -223q-17 6 -23 24q-4 17 0 54q10 129 49 229q31 79 56.5 166t56.5 209.5t45 171.5q91 326 149 575q18 64 29 82q8 16 23 10q12 -3 16 -18q3 -15 -6 -53q-118 -457 -129 -500q-2 -9 -7 -24.5t-7 -23.5t-4 -24.5t3 -25.5q85 157 189 272q69 81 160 141q67 41 102 52
q39 13 86 10q31 -3 51.5 -22t24.5 -50q9 -54 -6 -106q-13 -53 -45 -119q-165 -322 -510 -508q-5 -3 -17.5 -9t-17.5 -9q-6 -3 -6 -11t6 -10q113 -53 174 -70q125 -34 278 48q34 19 56 36q16 12 54 41t59.5 45.5t51.5 41.5t54 47q12 8 18 10q7 4 18 -4t9 -17q0 -15 -6 -24
q-21 -25 -33 -33q-21 -16 -96 -74.5t-117 -89.5q-48 -36 -125 -63q-135 -52 -262 -7q-24 9 -68 27t-63 25q-89 37 -119 41q-8 -7 -12.5 -16t-7.5 -22.5t-4 -17.5l-68 -307q-12 -59 -27 -84q-13 -19 -32 -16zM217 313q63 16 135 58q163 97 291 243q104 113 168 265
q27 67 29 110v12q-2 28 -14.5 39.5t-41.5 10.5q-10 0 -20.5 -2.5t-17 -5t-19.5 -8t-18 -7.5q-91 -41 -177 -131q-109 -113 -187.5 -252t-145.5 -313q-3 -9 3 -15.5t15 -3.5z" />
    <glyph glyph-name="S" unicode="S" horiz-adv-x="1034" 
d="M358 -225q-31 -12 -57 -7t-41 25q-40 49 -10 101q13 23 39 53q74 88 178 151q33 20 156 92q42 23 47 60q1 7 7 27.5t7 31.5q12 124 -109 127q-35 0 -65 -6q-45 -9 -191 -41q-8 -1 -33 -6t-37.5 -7t-32 -4t-36.5 -1q-65 2 -109 36t-61 97q-24 94 6 213q12 54 45 133
q134 295 388 469q101 67 194 88q93 22 178 -4q56 -19 88 -60t35 -98q3 -42 -8 -80q-40 -138 -129 -256q-41 -49 -80 -71q-49 -27 -82 -25q-21 0 -24 18q-5 14 12 27q2 2 14 6q67 12 127 90q78 109 111 222q8 32 8 53q0 95 -92 125q-66 21 -139 2q-87 -19 -160 -68
q-328 -211 -436 -590q-23 -83 -9 -157q24 -129 152 -117q15 2 31 5t36 7t31 6q33 6 94.5 20t87.5 19q49 11 101 8q72 -4 111.5 -48t37.5 -115q0 -3 -4 -30t2 -30q10 1 13.5 0t11.5 3t11 5t10.5 6.5t9.5 6.5l272 143q26 11 43 16q15 6 25 -8q11 -19 -3 -30q-15 -13 -47 -29
q-260 -140 -325 -172q-57 -29 -86 -88q-50 -108 -144 -217q-67 -70 -129 -107q-29 -17 -41 -20zM332 -178q31 13 41 20q68 39 129 113t88 154q-66 -38 -103 -62q-91 -55 -161 -137q-27 -32 -33 -49q-5 -14 8 -31q12 -15 31 -8z" />
    <glyph glyph-name="T" unicode="T" horiz-adv-x="565" 
d="M205 -170q-15 0 -19 14q-4 10 0 41l50 297q62 371 157 762q4 13 8 39q3 12 -3.5 19t-18.5 4q-70 -11 -150 -31q-21 -4 -348 -74q-33 -8 -53 -4q-12 4 -12 14q1 2 1.5 6.5t1.5 7.5t3 5q16 12 57 20l314 68q139 31 190 39q22 5 34 15t15 30t17 65q3 12 11.5 19t16.5 4
q18 -11 15 -35l-9 -45q-3 -18 4 -24t31 -5q93 15 94 15q47 5 145 14t148 14q22 2 65 7.5t62 7.5h47q16 -3 19 -19q3 -17 -15 -26l-26 -7q-201 -17 -293 -28q-49 -5 -140.5 -16.5t-119.5 -14.5q-42 -3 -51 -49q-107 -449 -174 -860q-6 -42 -19.5 -122t-19.5 -116
q-4 -32 -17 -43q-8 -8 -18 -8z" />
    <glyph glyph-name="U" unicode="U" horiz-adv-x="1003" 
d="M168 -147q-57 -25 -96 20q-36 42 -56 109q-16 57 -16 163q3 194 51 379q84 344 232 627q3 4 18 29q11 11 25 6q12 -6 12 -21q0 -22 -4 -32q-3 -7 -10.5 -21.5t-10.5 -21.5q-146 -287 -223 -629q-45 -202 -37 -367q3 -84 35 -149q20 -40 39 -44t53 25q38 34 72 78
q44 55 110 176q90 169 201 385q79 149 119 203q9 15 29.5 38.5t25.5 29.5q14 14 35 20q33 7 49 -22q14 -27 10 -66q-15 -94 -18 -106q-30 -144 -65 -287q-19 -94 -29 -207q-7 -72 16 -125q5 -11 14 -13t17 7q37 33 51 53q65 90 197 297q27 44 49 64q7 6 18 5.5t17 -7.5
q14 -12 4 -29q-40 -60 -68 -101l-160 -241q-35 -50 -69 -82q-27 -24 -52.5 -24.5t-42 15t-26.5 40.5q-20 46 -20 118q6 127 32 238q44 189 66 295q6 31 14 86q4 11 -6 14q-10 5 -18 -6q-5 -7 -24.5 -31.5t-27.5 -38.5q-25 -44 -94 -170l-190 -368q-62 -117 -125 -199
q-55 -64 -78 -82q-21 -18 -45 -30z" />
    <glyph glyph-name="V" unicode="V" horiz-adv-x="702" 
d="M152 -115q-65 -29 -95 33q-14 36 -24 76q-30 138 -33 315q-2 88 29 271q51 271 84 393q11 33 20 51q4 8 17 4q4 0 8 -4t4 -8q5 -16 -4 -60q-48 -183 -95 -499q-20 -134 -4 -281q10 -109 31 -192q12 -44 27 -49.5t49 22.5q46 35 104 104q55 72 109 162q120 206 231 430
q62 128 146 375l30 88q12 24 23 35t25 2q12 -6 12 -20q0 -15 -6 -27q-9 -29 -32 -92.5t-34 -98.5q-50 -149 -120.5 -293.5t-176.5 -334.5q-78 -136 -123 -199q-73 -103 -131 -154q-40 -36 -71 -49z" />
    <glyph glyph-name="W" unicode="W" horiz-adv-x="1208" 
d="M213 -168q-40 -37 -80.5 -31t-71.5 52q-20 34 -34 88q-38 131 -21 325q16 202 81 398t173 415q28 57 86 129q16 24 35 29q19 6 31 -8q7 -11 0 -25q-3 -6 -11 -15t-10 -11q-53 -64 -76 -111q-156 -305 -217 -561q-33 -126 -43 -297q-9 -139 23 -260q15 -49 37 -78
q24 -27 53 -6q23 16 49 53q67 94 119 211q92 203 162 352q39 84 102 211q25 48 41 62q17 13 31 8q21 -6 24 -29q2 -27 -8 -67q-8 -38 -41 -183q-31 -150 -41 -264q-9 -83 8 -160q16 -70 58 -112q45 -45 96 -13q36 21 78 74q53 73 108 193q73 176 117 397q28 143 41 311
q0 5 2 25t2 29.5t-2 25t-8 27.5q-8 14 12 26q17 8 31 -6q15 -15 18 -35q0 -4 0.5 -12t0.5 -15t-1 -13q-20 -416 -149 -746q-55 -133 -123 -229q-45 -62 -94 -95q-91 -59 -168 21q-48 48 -68 129q-21 79 -10 207q17 147 43 256q9 38 0 65q-33 -68 -61 -131l-154 -336
q-53 -115 -119 -208q-30 -44 -51 -62z" />
    <glyph glyph-name="X" unicode="X" horiz-adv-x="1153" 
d="M6 -260q-14 20 8 49t41 51q141 168 330 465q26 42 23 88q-7 161 -7 275q1 82 5.5 245t5.5 244q1 5 1 12v12t2 11t5 10q4 8 10 8q13 0 16 -6q8 -10 11 -24q2 -23 2 -68v-295h-4v-289q0 -41 2 -59q0 -14 8 -16q10 -3 16 6q23 32 31 45q219 330 412 577q99 122 131 154
q42 42 65 55q19 12 33 6q9 -4 12 -14q3 -3 -2 -12q0 -4 -4 -4q-10 -6 -19 -12t-18.5 -14.5t-16 -13.5t-16.5 -16.5t-14.5 -15.5t-16 -18t-13.5 -16.5t-15 -18.5t-14 -17q-263 -336 -527 -751q-24 -40 -20 -70q29 -208 88 -336q15 -36 49 -94q14 -23 35 -47q48 -51 117 -25
q42 18 96 72q41 45 111 143q34 49 63 94t46.5 73t39.5 69t29.5 55t29.5 59.5t27 55.5q16 36 39 29q27 -9 8 -52q-3 -7 -31.5 -66t-41 -82t-43 -77t-67 -108.5t-83.5 -118.5q-49 -69 -96 -119q-54 -54 -109 -78q-98 -40 -172 37q-24 24 -55 76q-74 127 -105 280
q-3 13 -8 39.5t-8 40.5q-4 13 -10 15q-3 3 -7 1.5t-5 -2.5t-4.5 -5t-4.5 -5q-12 -21 -24 -39q-136 -209 -254 -354q-48 -65 -62 -80q-29 -36 -51 -14z" />
    <glyph glyph-name="Y" unicode="Y" horiz-adv-x="966" 
d="M1061 451q13 -17 2 -31q-8 -11 -29 -27q-143 -125 -309 -295l-55 -57q-55 -58 -72 -127q-34 -132 -111 -272q-39 -77 -94 -129q-30 -30 -53 -39q-29 -12 -51.5 3t-20.5 46q0 10 4 26q2 7 29 74q30 66 86 146q61 82 88 116q10 13 30.5 37.5t36 45t25.5 40.5q9 18 25 76.5
t29.5 116t28.5 123.5t18 77q15 60 28 129t28 153.5t24 131.5q3 17 9.5 58t10.5 63t11.5 55t15.5 60q-18 4 -23 -4q-10 -14 -27 -48q-107 -208 -344 -573q-86 -131 -165 -193q-51 -44 -97 -59q-90 -35 -121 55q-26 75 -16 166q14 155 64 322q72 238 200 459q51 83 103 141
q32 32 45 12q4 -5 5.5 -9.5t-0.5 -9.5t-3.5 -7t-6.5 -8t-6 -7q-145 -192 -266 -524q-67 -187 -82 -371q-6 -71 8 -133q15 -61 70 -31q36 17 68 43q72 57 145 166q208 317 307 504q92 176 138 260q8 16 36 58q11 15 31 8q19 -8 19 -27q0 -24 -3 -45q-49 -254 -143 -758
q-1 -6 -20 -82t-34.5 -145t-14.5 -82q7 -4 12.5 -2.5t8 3.5t6 6.5t5.5 6.5q19 19 54 54.5t52.5 52.5t45 44t53.5 50.5t57 50.5q49 44 76 62q14 9 29 -6zM502 -199q7 18 -6 31q-7 -10 -21 -31t-22 -32q-64 -86 -109 -177q-2 -8 -10 -24q0 -1 -1.5 -6t-2 -7.5t0 -6t3.5 -5.5
q3 -3 6.5 -3t5.5 1t5.5 4t4.5 4q13 13 19 21q63 73 127 231z" />
    <glyph glyph-name="Z" unicode="Z" horiz-adv-x="962" 
d="M74 -176q-17 -7 -36.5 -6t-31.5 18q-16 26 10 64q56 102 156 217l129 135l496 510q128 128 200 233q33 45 47 80q11 32 2 49.5t-42 24.5q-36 9 -80 2q-319 -47 -529 -158l-24 -12q-20 -8 -31 6q-6 8 -4 16t10 13q16 16 37 28q62 39 139 64q183 67 377 94q79 11 133 -6
q96 -30 66 -129q-10 -32 -47 -88q-72 -111 -217 -256l-533 -547q-119 -119 -190 -225q-29 -43 -33 -66q21 3 39 8t45.5 17.5t30.5 13.5q256 115 329 146q178 76 510 139q14 3 27 0q10 -3 14 -21q6 -14 -10 -22q-35 -12 -57 -16l-170 -35q-146 -32 -355 -121
q-64 -27 -245 -109q-113 -49 -162 -61z" />
    <glyph glyph-name="bracketleft" unicode="[" horiz-adv-x="655" 
d="M111 -147q-31 -9 -41.5 2t-3.5 43q1 1 4 10q0 1 10 41q7 26 29 99.5t32 113.5q21 78 56 222t51 206q75 267 143 426q4 11 9 23t12 26t10 22q23 36 31 46q37 56 98 41q2 -1 96 -37q7 -1 8.5 -11t-4.5 -16q-14 -7 -22 -2q-18 5 -72 22q-37 14 -53.5 6.5t-38.5 -46.5
q-31 -49 -72 -160q-97 -282 -149 -510q-73 -301 -97 -383q-24 -74 -34 -111q-6 -13 -9 -26q-2 -7 2 -7q1 0 5 1q6 1 39 12q106 36 200 53q20 4 31 4q6 0 10.5 -4t3.5 -10q-3 -16 -12 -19q-17 -9 -41 -12q-71 -11 -203 -55l2 2q-20 -10 -30 -12z" />
    <glyph glyph-name="backslash" unicode="\" horiz-adv-x="329" 
d="M317 -115q-8 -3 -19.5 0.5t-14.5 12.5q-14 25 -17 43q-4 20 -19.5 98.5t-21 106.5t-19 95.5t-20 106.5t-16.5 96t-17.5 107t-13.5 100q-8 61 -19.5 129.5t-26.5 151.5t-23 129q-1 3 -4.5 22t-3 21t0.5 22q4 18 21 15q13 -3 16 -19q11 -58 27 -131q18 -90 90 -514
q11 -70 25 -143t36 -179t29 -143q3 -17 11.5 -49.5t11.5 -48.5q4 -19 -13 -29z" />
    <glyph glyph-name="bracketright" unicode="]" horiz-adv-x="614" 
d="M150 -119q-55 12 -76 27q-15 9 -13 24.5t21 22.5q8 5 53 22q15 4 19 -8q3 -10 -7 -20q-8 -8 -14 -10l-10 -7q0 -2 12 -4q4 -2 10.5 -3.5t13 -2.5t9.5 -2q20 0 25 12q14 34 32 86q6 23 17.5 62t20.5 72t16 63q18 60 100 358q69 249 186 517l8 18l-2 -2q1 2 1 3v1h-1l-2 -2
q-173 -63 -239 -94q-6 -3 -16.5 -9.5t-16.5 -9.5l-1 -2l-4 -4t-4.5 -4t-5.5 -4t-6 -3t-6 -0.5t-6 3t-6 6.5q-11 19 29 39q63 36 80 43q77 32 198 76q3 2 9.5 3.5t7.5 2.5h2q14 2 22.5 -6t7.5 -21q-2 -8 -7 -22.5t-7 -22.5q-87 -199 -145 -377q-47 -156 -56 -192
q-12 -39 -24 -83t-26 -97t-23 -84l-64 -232q-10 -38 -31 -84q-22 -63 -81 -49z" />
    <glyph glyph-name="asciicircum" unicode="^" 
 />
    <glyph glyph-name="underscore" unicode="_" horiz-adv-x="466" 
d="M76 -31q-10 5 -13 11q-6 4 1.5 13t15.5 9l37 6h2h82q23 1 122 3t117 3q11 0 17 -2q13 -4 10 -16t-14 -16q-21 -7 -27 -7q-37 -1 -172 -2t-172 -2h-6z" />
    <glyph glyph-name="a" unicode="a" horiz-adv-x="530" 
d="M35 182q-26 -13 -46.5 -0.5t-23.5 43.5q0 23 2 33q40 155 127 240q9 11 31 26q67 53 129 2q14 -10 20 -9t17 15q14 17 37.5 50.5t33.5 46.5q29 41 31 43q19 19 37 10q19 -13 10 -41q-4 -9 -13 -27.5t-13 -27.5q-56 -113 -82 -205q-21 -78 -21 -111q0 -11 6 -15.5t15 -0.5
q32 14 55 27q36 23 76 55q17 15 49.5 44.5t50.5 43.5q34 28 35 29q13 10 25 -2q15 -10 8 -31q-1 -2 -13 -14q-122 -122 -210 -175q-45 -29 -80 -36q-70 -12 -70 57q0 28 8 86q2 12 19 78q-11 -4 -20 -9.5t-13 -10t-10.5 -13t-8.5 -10.5q-87 -103 -143 -152q-31 -27 -55 -39z
M29 250q10 -2 18 6q80 66 176 190q3 2 8 11q6 18 -8 28q-23 16 -45 7q-18 -6 -33 -21q-95 -82 -120 -217q4 -2 4 -4z" />
    <glyph glyph-name="b" unicode="b" horiz-adv-x="690" 
d="M-4 -96q-16 6 -16 20q0 13 4 41q6 59 16 124.5t23.5 148t19.5 124.5q9 64 51 207q93 322 158 484q58 133 70 159q5 11 45 68q12 20 32 12q19 -11 15 -35q-3 -29 -13 -59q-44 -151 -155 -414q-24 -53 -37 -79q-58 -106 -107 -322q-3 -16 -8.5 -44t-9.5 -51.5t-6 -45.5
q9 2 15.5 7t9 9t7 12.5t5.5 10.5q76 116 172 186q64 38 84 43q95 25 98 -70q1 -13 0 -27t-3 -31.5t-3 -27.5q0 -4 -1 -9t-1.5 -8t0.5 -7.5t4 -7.5q13 -4 35 14q57 35 237 123q5 3 19 8q11 4 21.5 0.5t13.5 -12.5q6 -22 -15 -33q-25 -18 -65 -35q-120 -59 -234 -129
q-62 -42 -84 -92q-54 -100 -131 -160q-29 -22 -55 -24q-20 -2 -32.5 12.5t-8.5 34.5q6 28 39 69q60 72 131 123q49 35 61 92q21 81 19 119q0 34 -35 25q-29 -9 -66 -35q-118 -87 -184 -225q-42 -86 -94 -244q-10 -35 -12 -39q-8 -14 -29 -10z" />
    <glyph glyph-name="c" unicode="c" horiz-adv-x="606" 
d="M139 84q-87 -3 -125.5 41t-33.5 117q0 12 4 32q45 177 174 289q64 54 131 17q34 -17 37 -52q12 -81 -41 -143q-4 -6 -17 -10q-4 -3 -11 1t-7 9q-2 12 12 39q22 42 17 76q-2 23 -19 34.5t-39 2.5q-20 -6 -39 -25q-106 -95 -145 -244q-19 -70 12.5 -104.5t104.5 -26.5
q45 4 116 35q82 34 156 90q40 30 113 89t96 77q26 22 37 29q17 10 30 -6q11 -13 0 -31q-3 -6 -18 -21q-171 -144 -281 -217q-96 -63 -192 -88q-18 -4 -72 -10z" />
    <glyph glyph-name="d" unicode="d" horiz-adv-x="583" 
d="M672 1223q10 -6 14 -29q0 -21 -16 -57q-41 -111 -95 -193q-60 -93 -114 -264q-78 -262 -105 -442q-28 -188 -20 -328q3 -77 22 -158q4 -8 4 -12q7 -33 -16 -39q-12 -6 -23 1.5t-14 25.5q-23 98 -26 184q-8 224 49 485q4 20 41 164q8 28 4 45v-2q-11 -4 -19 -12.5t-16 -22
t-12 -18.5q-106 -153 -197 -254q-12 -15 -65 -68q-24 -20 -41 -24q-18 -3 -32 7t-15 28q0 21 6 39q47 145 120 253q30 42 66 66q37 23 56.5 17t41.5 -46q12 3 27 29l80 117q88 133 123 237q36 112 92 207q19 43 43 60q17 17 37 4zM61 293q13 15 56 66.5t69.5 85t51.5 67.5
q2 3 11.5 16t14 21.5t6.5 17.5q-38 8 -65.5 -8t-54.5 -51q-5 -3 -9 -10q-39 -58 -82 -166q-8 -19 2 -39z" />
    <glyph glyph-name="e" unicode="e" horiz-adv-x="466" 
d="M96 86q-82 0 -104 76q-14 41 -12 69q-2 37 14 95q40 122 119 198q54 51 104 58q38 6 59.5 -14.5t18.5 -59.5q-9 -62 -51 -107q-34 -37 -56 -57.5t-60 -41.5t-77 -26q-12 -2 -16 -18q-8 -32 6 -72q12 -56 70 -47q33 6 88 33q82 45 147 104q25 23 73 69.5t73 68.5
q31 31 38 37q17 14 31 0t6 -31q-5 -10 -16 -21q-123 -126 -205 -192q-69 -57 -145 -94q-64 -27 -105 -27zM78 338q103 56 143 125q19 30 19 47q-3 20 -19 16q-19 -3 -37 -14q-82 -54 -123 -162q0 -10 5 -10q9 -5 12 -2z" />
    <glyph glyph-name="f" unicode="f" horiz-adv-x="432" 
d="M78 -535q-23 -25 -50 -21.5t-44 32.5q-25 44 -35 100q-12 94 -10 141q9 210 57 430q68 306 215 668q71 178 166 322q32 55 76 94q31 27 53 18q27 -13 20 -59q-4 -32 -12 -57q-21 -78 -63 -170q-126 -275 -263 -482q-36 -55 -63 -102q-18 -29 -25 -47q-9 -18 2 -25
q10 -5 19 -2q37 10 110 47l222 113q13 7 49 20q9 3 19 -2t11 -14q6 -19 -10 -29q-5 -3 -19.5 -10.5t-21.5 -11.5q-136 -68 -233 -119q-56 -27 -111 -47q-26 -6 -51 -19q-13 -8 -10 -22l12 -31q79 -202 64 -407q-9 -123 -19 -172q-4 -29 -20 -78q-10 -33 -35 -58zM174 541h6
q166 265 275 549q2 6 7 18.5t6.5 18.5t3.5 19.5t-3 20.5q-15 -4 -23.5 -12t-18.5 -27.5t-11 -21.5q-123 -195 -236 -522q-12 -27 0 -43q-2 0 -6 4v-4zM25 -483q5 -8 12 -8.5t12 8.5q25 36 35 100q20 134 14 279q-3 81 -30 178q-4 20 -23 32q-1 -4 -6 -18.5t-6 -21.5
q-1 -9 -14 -92t-17 -126q-17 -136 -4 -241q7 -54 27 -90z" />
    <glyph glyph-name="g" unicode="g" horiz-adv-x="843" 
d="M154 -711q-23 -20 -46 -13t-32 36q-11 47 2 100q21 91 80 193q78 139 186 268q40 49 57 107q68 226 70 231q43 145 78 256q9 27 4 43q-9 -3 -16 -7.5t-17 -16.5l-10 -11q-186 -166 -221 -194q-81 -63 -139 -95q-40 -20 -62 -22q-72 -6 -84 59q-10 48 4 113
q52 201 236 295q73 34 137 18q77 -19 88 -88q4 -20 4 -26q5 -4 12 -2t9.5 4t7 6.5t6.5 5.5q52 48 80 72q17 17 37 4q19 -13 16 -35q-12 -50 -27 -96q-50 -137 -118 -392q-9 -27 -4 -39q9 1 15.5 6t14 14.5t10.5 12.5q126 132 347 326l30 24q19 9 31 -6t0 -30q-8 -10 -27 -29
q-18 -16 -90.5 -82t-113.5 -102q-112 -102 -256 -275q-28 -31 -39 -69q-13 -37 -38.5 -111t-39.5 -111q-54 -139 -133 -276q-29 -48 -49 -66zM98 221q30 12 86 49q25 17 55 41t46 37t55.5 47.5t46.5 40.5q39 31 33 68v35q-3 24 -15.5 37.5t-37.5 19.5q-43 11 -93 -10
q-176 -84 -217 -281q-5 -25 -2 -59q2 -19 13 -25.5t30 0.5zM133 -641q1 0 3 1t3 1q1 2 6.5 7.5t6.5 8.5q95 155 149 318q5 14 -8 20q-29 -36 -86 -131q-60 -106 -76 -184q-2 -6 -4 -19t-2 -14z" />
    <glyph glyph-name="h" unicode="h" horiz-adv-x="681" 
d="M774 451q13 -10 10 -25q-5 -20 -28 -43q-35 -34 -109.5 -88t-109.5 -68q-46 -18 -78 -1t-43 65q-10 49 -6 127q0 35 -2 53q0 5 -5 7.5t-10 -1.5q-16 -10 -24 -20q-42 -46 -90 -127q-70 -113 -136 -254q-11 -22 -47 -88q-13 -26 -33 -43q-15 -14 -33 -9t-24 25
q-6 24 -6 53q-4 88 18 234q4 27 15.5 79.5t15.5 78.5q1 4 5 18t5 20t0 17.5t-6 21.5q-6 11 10 37q8 11 14.5 22t13 26t9.5 23t10 27.5t9 24.5q89 262 264 553q7 12 16.5 25t21 28t17.5 23q9 9 27 18q7 4 17 -1t10 -13q0 -20 -5 -33q-7 -24 -22 -61q-149 -329 -268 -510
q-35 -56 -52 -115q-71 -233 -90 -432q-2 -18 -2 -53q0 -3 4 -27q12 8 19.5 18t13.5 24.5t8 18.5q72 151 144 265q49 82 90 125q25 28 55 49q25 17 47 7.5t27 -38.5q2 -9 2 -53q0 -12 -0.5 -32.5t-0.5 -37t1 -31.5q0 -37 4 -53q9 -48 53 -28q34 15 106 68t101 83q10 13 23 23
q10 7 24 -2zM324 977q2 3 3.5 9t2.5 7zM305 956l12 11q-2 -1 -12 -11zM301 952q-4 -24 -14 -34h2v2q14 18 12 32z" />
    <glyph glyph-name="i" unicode="i" horiz-adv-x="380" 
d="M141 596q-14 -2 -24 9t-11 30q0 37 37 37q17 0 28 -9.5t13 -23.5q0 -17 -13 -30t-30 -13zM109 76q-34 -8 -62.5 8t-38.5 49q-8 20 -8 74q20 161 59 258q16 36 31 51q15 12 31 2q14 -7 10 -22q-1 -3 -5.5 -14.5t-6.5 -16.5q-43 -91 -66 -258q-3 -26 4 -53q3 -13 15 -20.5
t26 -4.5q29 4 78 39q72 59 152 149q18 20 49.5 59.5t44.5 55.5q8 11 29 27q9 9 24 -2q11 -8 8 -25q-3 -13 -12 -22q-141 -181 -233 -258q-41 -37 -68 -52q-29 -18 -61 -24z" />
    <glyph glyph-name="j" unicode="j" horiz-adv-x="362" 
d="M113 674q-15 -1 -25 10.5t-10 28.5q-3 37 35 37q17 0 29 -9.5t12 -23.5q0 -17 -12 -30t-29 -13zM-334 -655q-26 -18 -48 -9t-26 39q-2 8 -2 47q2 30 23 91q38 103 86 182q91 163 215 305q29 36 47 80q69 189 107 395q9 50 14 72q3 19 24 16t21 -20q0 -38 -4 -54
q-19 -121 -57 -262q-1 -3 -5 -13.5t-5 -14.5t-3 -16.5t2 -18.5q9 3 17.5 9t13.5 10.5t13 12.5t12 11q41 39 87.5 77.5t109.5 88l91 71.5q20 16 35 21q17 6 29 -14q8 -15 -2 -25l-21 -18q-54 -41 -168 -134q-125 -99 -241 -221q-40 -43 -60 -96q-47 -125 -108 -272
q-33 -81 -82 -177q-11 -22 -66 -110q-19 -32 -49 -53zM-346 -582q8 0 12 7q24 31 41 59q84 151 146 315q0 2 2 6t2.5 6.5t-0.5 6t-4 6.5q-14 -7 -15 -10q-118 -164 -176 -322q-4 -12 -14 -57q-4 -13 6 -17z" />
    <glyph glyph-name="k" unicode="k" horiz-adv-x="667" 
d="M-20 -141q-9 0 -15 6.5t-6 15.5q0 17 4 53l21 132q2 20 2.5 24.5t-2 24t-2.5 24.5q0 13 14 33t16 33q7 41 33 143q5 24 -4 31q-21 19 -2 53l16 24t16 27t13 25t13.5 28.5t11.5 25.5t12 29t10.5 26.5t11.5 29.5t11 27q47 124 145 317q23 48 47 72q19 16 37 4q15 -9 12 -29
q-6 -25 -16 -51q-91 -215 -180 -366q-32 -55 -49 -109q-45 -138 -66 -225q-4 -22 0 -29q9 4 15 11t11.5 17.5t8.5 14.5q62 101 102 150q31 38 72 69q25 17 43 19q20 2 34 -12.5t11 -34.5q-3 -24 -33 -72q-51 -82 -145 -166q-15 -14 -44 -38t-34 -28q-7 -7 -4 -16
q2 -10 14 -10q79 6 80 6q207 31 356 160q25 21 71.5 61.5t55.5 48.5q30 25 37 29q15 9 29 -8q10 -14 2 -25q-4 -8 -16 -20q-4 -3 -22.5 -20.5t-23.5 -22t-21.5 -20t-24 -21.5t-22 -19t-24.5 -20.5t-23 -18t-25.5 -19.5t-24.5 -17q-172 -118 -389 -127q-9 0 -26 -0.5
t-19.5 0.5t-12.5 -3.5t-10 -5t-7 -12.5t-8.5 -18.5t-9.5 -28.5q-21 -61 -39 -123l-12 -45q-7 -17 -26 -14zM180 301q31 21 87 83t63 91q-39 -7 -84 -64.5t-66 -109.5z" />
    <glyph glyph-name="l" unicode="l" horiz-adv-x="397" 
d="M489 451q14 -7 11 -23q0 -14 -8 -25q-3 -7 -31 -51q-46 -60 -135.5 -182.5t-128.5 -173.5q-42 -53 -78 -82q-35 -29 -63.5 -20.5t-43.5 51.5q-7 18 -10 32q-2 27 -2 68q2 119 35 279q1 4 3 13.5t2.5 14.5t0.5 13t-2.5 14.5t-7.5 13.5q-11 14 6 31q34 41 57 127
q96 304 225 514l56 84q5 7 37 39q22 18 43 8q22 -10 18 -41q-9 -42 -16 -57q-7 -18 -47 -111q-125 -248 -244 -432q-31 -50 -43 -90q-53 -184 -68 -369q-8 -83 4 -125q3 -12 12.5 -15.5t18.5 3.5q46 46 55 59q100 129 291 394q13 23 27 37q9 9 26 2zM410 1079q-2 2 -2 4
q0 -2 2 -6v2zM236 778q-11 -25 -3 -43v-2v2h3q77 154 118 232l56 110q-16 10 -33 -12q-84 -140 -141 -287zM233 735q1 1 3 0h-3z" />
    <glyph glyph-name="m" unicode="m" horiz-adv-x="849" 
d="M2 23q-22 6 -22 30q0 49 2 72q17 121 53 250q60 209 125 332q2 3 6.5 13t9 15.5t10.5 9.5q12 8 19 3q9 -9 12 -15q3 -5 0.5 -16t-4 -14.5t-6.5 -13.5t-6 -13q-45 -95 -95 -250q-31 -95 -59 -227q-1 -5 -1 -14t-1 -13q5 -5 11 -2.5t7 3.5t4.5 6.5t4.5 6.5q7 12 43 76
t57 98q46 73 94 121q20 20 41 35q19 11 36 4.5t24 -26.5q12 -27 8 -72q0 -1 -6 -100q0 -8 1 -24.5t1 -23.5q0 -6 7.5 -9.5t12.5 -0.5l39 37q53 53 68 66q18 15 39 24q43 16 61 -22q5 -7 9.5 -20t6.5 -17q12 -23 21 -35q22 -25 53 -14q34 10 70 39q84 70 137 118q3 2 8 11
q25 19 41 0q18 -19 -2 -39q-13 -16 -29 -29l-122 -104q-39 -30 -74 -46q-84 -30 -133 43q-4 5 -14 27.5t-23 30.5q-17 -9 -32 -22.5t-34 -33.5t-28 -28q-42 -48 -72 -60q-14 -7 -28.5 -2t-22.5 19q-10 24 -13 45q-2 14 -2 47q4 62 4 92q0 3 2.5 17t0 21.5t-12.5 10.5
q-7 2 -13 -2.5t-14.5 -16.5t-9.5 -13q-32 -38 -90 -134q-7 -13 -43 -78t-55 -98q-21 -43 -45 -65q-16 -16 -37 -10z" />
    <glyph glyph-name="n" unicode="n" horiz-adv-x="620" 
d="M10 27q-15 -11 -31.5 -4.5t-17.5 26.5q-2 8 -2 27q5 38 8 51q32 120 43 156q44 121 115 307q5 11 31 59q6 10 16.5 13t17.5 -3q19 -11 11 -34l-13 -25q-20 -52 -60 -156.5t-60 -156.5q-1 -5 -6 -18t-7 -20t-2 -18t4 -20q59 108 160 227q47 51 82 70q50 27 78 -25
q7 -15 12 -51q2 -17 5 -50t5 -50q3 -35 19 -64q9 -21 35 -14q30 10 67 43q90 84 107 100q20 17 32.5 29.5t17 17.5t7.5 7q14 15 29 0q15 -12 8 -29t-19 -29q-15 -15 -165 -151q-40 -35 -82 -43q-58 -9 -84 41q-21 43 -23 75q-7 76 -14 121q-2 12 -11 15.5t-18 -5.5
q-45 -40 -61 -61q-108 -125 -187 -287q-2 -4 -6 -12.5t-6 -13t-6.5 -12.5t-8 -12.5t-9 -10.5t-11.5 -10z" />
    <glyph glyph-name="o" unicode="o" horiz-adv-x="401" 
d="M143 119q-49 -30 -99 -9t-60 78q-7 28 -4 54q12 127 96 223q28 35 57 45q12 6 27 6q19 -4 22 -20q4 -24 -12 -27q-10 -2 -18 -4.5t-16 -9t-12.5 -9t-12.5 -13t-9.5 -12.5t-10.5 -15.5t-9 -14.5q-31 -56 -41 -104q-8 -24 -8 -60q0 -60 41 -69q19 -5 39 5.5t32 31.5
q46 73 7 133q-10 14 -21 41q-3 10 3.5 19t17.5 11h63q35 -4 115 19q19 7 56 20.5t56 20.5l33 8q17 0 27 -16q5 -9 0 -19t-17 -14q-19 -6 -56.5 -20.5t-60 -22.5t-56 -16t-62.5 -11q-27 -3 -31.5 -9t0.5 -32q11 -58 -14 -117q-20 -45 -62 -71z" />
    <glyph glyph-name="p" unicode="p" horiz-adv-x="753" 
d="M-104 -512q-19 5 -19 33q0 43 6 86q50 440 187 856q12 37 90 237q12 30 30 60q10 16 29 10q16 -5 8 -29q0 -4 -4 -12q-143 -347 -231 -768q-1 -6 -6.5 -28.5t-7.5 -38t-1 -31.5q15 8 29 41q63 155 187 362q75 129 163 211q56 52 84 68q32 18 47 22q71 24 93 -49l4 -16
t2.5 -17.5t0.5 -15t-0.5 -16.5t-1 -14.5t-2 -17t-1.5 -15.5q-2 -11 4.5 -16t15.5 -1q9 3 37 17l143 55q7 3 25 8q12 4 20 4q9 1 18 -6t11 -16q3 -21 -16 -27q-67 -23 -107 -39q-21 -8 -62 -26.5t-61 -26.5q-49 -22 -69 -76q-52 -142 -176 -242q-33 -25 -56 -34
q-35 -17 -60 0.5t-22 56.5q2 28 23 63q30 53 76 93q74 71 151 120q44 27 47 76q1 5 5.5 35t3.5 35.5t-3 36.5q-9 26 -34 18q-33 -13 -78 -53q-90 -76 -176 -217q-195 -318 -295 -680q-4 -17 -17 -51q-5 -14 -14.5 -21t-19.5 -4zM289 39q7 -7 18 0q116 82 152 180q11 3 4 10
q-4 4 -8 -4q-70 -37 -144 -129q-6 -7 -13.5 -21t-10.5 -18q-5 -14 2 -18z" />
    <glyph glyph-name="q" unicode="q" horiz-adv-x="649" 
d="M250 -467q-38 -35 -79 -25.5t-60 58.5q-32 86 -23 190q7 118 25 199q8 34 -19 53q-12 7 -41 31q-14 12 -11.5 28.5t19.5 20.5q10 3 32 8t32 8q29 4 37 25q28 72 76 201q1 1 -2 8q-9 -3 -17 -9t-16.5 -15.5t-12.5 -12.5q-58 -54 -88 -70q-16 -9 -25.5 -13t-23 -4.5
t-26.5 7.5q-37 24 -21 80q49 183 160 289q31 31 74 43q29 6 49 -8.5t20 -42.5q1 -8 -3.5 -14.5t-10 -7.5t-10.5 3q-23 18 -36.5 16t-33.5 -18q-10 -8 -31 -29q-86 -96 -125 -233q0 -10 4 -18q3 -2 9.5 -1.5t9.5 3.5q54 39 74 59q110 108 256 301q22 32 32 41q15 15 31 2
q16 -9 8 -29q-6 -14 -24 -41q-124 -190 -211 -409l-19 -57q-3 -7 2 -13t13 -4q11 3 49 17q223 84 375 253q32 37 45 48q15 12 30 0t7 -31q-9 -15 -21 -27q-189 -223 -473 -313l-39 -12q-24 -9 -29.5 -32.5t11.5 -45.5q5 -7 17 -20.5t17 -20.5q115 -157 62 -342
q-13 -46 -45 -74zM188 -438q21 0 41 28q8 16 15 37q33 100 -6 203q-27 70 -72 109q-38 -171 -16 -314q0 -5 2.5 -14t3.5 -12t2.5 -8t2.5 -8t3.5 -7.5t5.5 -7t7.5 -4.5t10.5 -2z" />
    <glyph glyph-name="r" unicode="r" horiz-adv-x="499" 
d="M-16 -33q-21 5 -25 31v53q27 188 90 328q11 26 33 77t33 76q2 4 7.5 14t8.5 15q10 10 25 6q17 -7 14 -20q0 -22 -10 -45q-7 -18 -16 -38.5t-20.5 -45.5t-17.5 -39q-40 -90 -65 -189q-11 -44 -2 -65h-2l2 -2l80 162q46 84 98 133q26 26 47 39q19 10 36 5t28 -24
q4 -7 11 -23.5t11 -23.5q29 -53 84 -26q60 31 109 77q13 14 26 21q12 6 25 -4q12 -12 6 -25q-7 -18 -18 -26q-51 -54 -136 -97q-37 -17 -71.5 -8t-59.5 43q-7 9 -17.5 27.5t-12.5 21.5q-19 0 -35 -20q-48 -48 -92 -131q-8 -16 -43.5 -87.5t-55.5 -111.5t-36 -63
q-14 -21 -39 -15z" />
    <glyph glyph-name="s" unicode="s" horiz-adv-x="446" 
d="M-47 -154q-40 24 -33 88q5 32 33 72q53 77 108 119q37 30 37 88q-2 74 -24 184q-10 69 -11 80q-8 126 109 209q41 25 90 16q12 -3 23 -14q7 -8 3.5 -19t-12.5 -14q-12 -4 -18 -2q-46 3 -84 -35q-52 -48 -57 -104q-4 -37 2 -65q27 -140 33 -220q0 -1 10 -18q21 11 31 18
l296 209q14 10 27 17q13 8 25 -4q18 -14 4 -31q-11 -16 -33 -31q-29 -21 -83 -59t-75 -54l-170 -120q-35 -23 -41 -66q-6 -66 -39 -141q-24 -56 -59 -86q-51 -45 -92 -17zM-20 -100q9 -12 24 0q30 22 50.5 66t21.5 93q-73 -52 -103 -129q-3 -7 0 -14q0 -9 7 -16z" />
    <glyph glyph-name="t" unicode="t" horiz-adv-x="411" 
d="M70 -137q-60 -28 -86 35q-13 32 -13 77q0 41 19 181q32 198 135 483q7 20 20.5 55.5t18.5 50.5q9 28 2.5 36t-35.5 5q-27 -3 -82.5 -10t-83.5 -10q-50 -8 -74 -4q-12 4 -14 12q-4 20 10 23q18 6 58 14q111 15 219 27q37 3 51 34l55 123q18 33 58 99q15 27 34 34.5
t24.5 -8.5t-7.5 -49q-26 -62 -76 -164q-14 -33 -14 -49q19 -6 49 -2q56 6 185.5 17.5t187.5 17.5q1 1 36.5 0.5t36.5 -0.5q13 0 17 -21q0 -17 -13 -20q-19 -4 -53 -8l-440 -39q-24 -2 -37 -11t-22 -30q-37 -84 -98 -269t-83 -280q-20 -83 -30 -205q0 -5 -1.5 -18.5t-2 -20.5
t1 -18t6.5 -19.5t14 -15.5q8 1 16 4.5t13.5 6.5t12.5 10t10 10.5t10.5 13.5t9.5 12q49 61 171.5 234t153.5 205q1 1 6 7.5t6.5 8.5t6 7t7.5 7.5t8 5.5t11 5q13 4 23 -2q17 -13 6 -31q0 -6 -6 -12q-40 -46 -174.5 -231.5t-206.5 -268.5q-20 -29 -57 -45z" />
    <glyph glyph-name="u" unicode="u" horiz-adv-x="673" 
d="M455 160q-70 -11 -90 57q-7 27 -7 82q2 12 7 48t8 56q0 3 1.5 8t2 8.5t-1 7.5t-6.5 5q-3 3 -8.5 0t-6.5 -3.5t-6 -6t-6 -6.5q-4 -4 -24.5 -25.5t-32.5 -32.5q-76 -76 -138 -116q-38 -26 -57 -33q-23 -9 -42.5 1.5t-22.5 35.5q-5 19 -2 47q16 127 73 227l17 23q19 22 39 6
q18 -15 4 -35q-7 -14 -21 -35q-43 -79 -59 -184q0 -20 8 -23q8 -6 25 7q10 8 31.5 23.5t31.5 23.5q90 74 193 196q4 4 24.5 25.5t32.5 32.5q13 13 31 4q7 -3 11.5 -11t2.5 -16q-7 -37 -14 -59q-30 -90 -39 -189q-3 -31 0 -61q6 -51 55 -31q41 15 86 51q65 53 147 146
q18 21 39 39q11 11 25 -2q17 -14 8 -29q-9 -18 -14 -23q-96 -114 -176 -176q-55 -39 -78 -49q-30 -11 -51 -14z" />
    <glyph glyph-name="v" unicode="v" horiz-adv-x="489" 
d="M102 4q-34 -23 -59.5 -13t-34.5 50q-2 7 -8 70q20 241 96 419q3 13 15 21q14 10 24 0q7 -5 12 -14q1 -11 -8 -39q-61 -148 -80 -326q-4 -54 -4 -80q0 -29 13 -35q12 -5 21 3t15 18q21 21 41 51q77 114 97 193q13 52 45.5 77t87.5 31q26 3 164 33q30 4 39 0q14 -11 14 -23
q0 -16 -12 -22q-9 -6 -25 -6l-164 -35q-7 -1 -22.5 -4t-22.5 -4q-34 -6 -43 -37l-18 -51q-42 -110 -117 -211q-34 -47 -66 -66z" />
    <glyph glyph-name="w" unicode="w" horiz-adv-x="811" 
d="M98 18q-32 -20 -61 -10t-43 45q-8 25 -12 58q-3 28 0 53q26 201 116 340q11 20 49 63q17 13 29 15q14 7 25 -7q8 -11 2 -24q-6 -9 -13 -16q-45 -41 -90 -140q-50 -110 -65 -225q-7 -58 10 -98q8 -16 23 -9q5 2 9.5 4t8.5 5.5t7 6t7.5 6.5t6.5 6.5l6 7.5t6 7
q83 107 141 211q17 34 27 48q11 18 28 12q21 -6 21 -31q-1 -7 -4 -25t-4 -28q-6 -65 16 -117q41 -89 115 -18q19 17 35 63q22 57 30 158q2 18 2 53q4 23 17 27q23 6 35 -15l14 -20q34 -42 90 -54.5t104 13.5q16 8 45 28t33 23q26 19 43 4q9 -7 6 -20t-16 -25
q-18 -15 -53 -39q-89 -66 -205 -26q-40 13 -55 20q-10 -17 -19 -67q-13 -75 -47 -131q-27 -50 -80 -68q-70 -27 -119 31q-26 33 -34 65q-4 27 -19 35q-9 -5 -15.5 -12t-16 -22.5t-9.5 -16.5q-11 -13 -36.5 -48t-41.5 -53q-27 -31 -49 -43z" />
    <glyph glyph-name="x" unicode="x" horiz-adv-x="602" 
d="M-115 -84q-11 8 -8 25q1 11 25 39l186 208q11 11 27 31q4 5 15.5 16.5t18.5 22t9 21.5q1 11 -4 21.5t-15.5 23t-13.5 18.5q-44 78 -59 127q-8 19 -5 33q0 10 17 18q14 7 22 -8q10 -14 21 -41q33 -79 65 -125q16 -22 33 -2q35 39 105 121q3 3 10 10.5t11 11.5t11 9t13 8
q17 3 24 -4q11 -11 4 -25q-20 -25 -26 -31q-20 -25 -60 -72.5t-59 -72.5q-12 -15 -12 -23.5t12 -23.5q36 -50 63 -68q31 -24 62 -24q24 0 49 18q37 21 76 66q55 59 137 172q14 21 31 35q9 12 24 0q13 -13 11 -23q-1 -6 -11 -25q-92 -137 -184 -229q-27 -24 -53 -41
q-86 -57 -174 6q-19 14 -70 74q-17 17 -33 -2q-25 -27 -196 -219q-24 -30 -54 -60q-12 -12 -20 -16q-10 -8 -25 0z" />
    <glyph glyph-name="y" unicode="y" horiz-adv-x="675" 
d="M768 463q17 -14 6 -29q-17 -26 -41 -53q-113 -129 -250 -315q-47 -59 -59 -132q-16 -110 -64 -239q-20 -54 -41 -78q-22 -25 -46.5 -22.5t-39.5 30.5q-25 48 -8 92q12 39 37 93q37 81 105 180q23 38 28 73q3 31 35 273l19 145q2 6 2 21q0 3 -2.5 5.5t-4.5 2.5
q-7 3 -12 -2l-43 -51q-83 -104 -158 -164q-39 -31 -71 -51q-25 -14 -49 -17q-54 -3 -66 45q-4 12 -4 39q0 119 53 228q8 16 31 43q15 15 37 6q8 -5 9.5 -15.5t-5.5 -19.5q-43 -56 -66 -174q-6 -23 -6 -66q-1 -21 9.5 -27t29.5 5q24 14 62 41q75 60 139 143q19 23 112 141
q2 2 9.5 10.5t11.5 12t12 6t17 0.5q26 -6 18 -57q-20 -170 -39 -314l-12 -118q6 0 14 -4q8 10 21.5 26.5t24.5 30t20 26.5q43 58 172 207q11 15 22 23q15 12 31 0zM332 -168v2v-2zM332 -219q10 29 -2 49q-10 -25 -29 -63l-25 -62q-9 -24 3 -31q3 -1 5 -1h3.5t3.5 1.5t3 2.5
t2 4t1.5 4l2 4t1.5 4z" />
    <glyph glyph-name="z" unicode="z" horiz-adv-x="657" 
d="M100 -414q-44 -13 -57 33q-4 14 0 45q10 66 61 141q54 82 170 224q3 3 8.5 10t8.5 10q25 29 29 66t-15 71q-17 36 -59 33q-6 -1 -45 -12q-2 0 -31 -12q-17 -6 -31 8q-13 17 0 30q15 21 35 41q114 131 178 258q16 31 29 68q1 7 -4.5 13.5t-11.5 4.5q-8 -3 -30.5 -9.5
t-33.5 -12.5q-59 -27 -192 -137q-15 -12 -28.5 -12.5t-19.5 8.5q-11 22 11 41q166 144 272 174q56 15 79.5 -10t6.5 -80q-6 -22 -37 -86q-37 -71 -125 -191q-22 -25 13 -33q53 -12 81 -80q1 -3 5 -16t10 -18q8 -1 14 2t14.5 11.5l10.5 10.5q184 168 278 252q21 21 39 23
q11 4 19 -4q11 -8 8 -25q-1 -5 -2.5 -9t-5.5 -8l-6 -6t-7.5 -6.5t-7.5 -5.5q-27 -25 -85 -75t-85 -76l-147 -138q-40 -35 -60 -100q-55 -187 -161 -330q-11 -14 -60 -63q-9 -11 -33 -23zM104 -332q8 -8 17 2q89 102 133 236q-35 -39 -55.5 -63.5t-46.5 -62t-41 -73.5
q-1 -3 -4.5 -12t-4.5 -14q0 -9 2 -13z" />
    <glyph glyph-name="braceleft" unicode="{" horiz-adv-x="643" 
d="M637 1243q10 -10 4 -22q-3 -17 -27 -11q-26 12 -41.5 8t-35.5 -30q-31 -51 -41 -84q-18 -46 -53.5 -137.5t-53.5 -137.5q-49 -128 -98 -229q-46 -93 -101 -139q-8 -5 -6 -10q9 -18 11 -44t0.5 -41t-5.5 -47q-2 -29 -18 -96q-27 -148 -63 -321q-7 -31 -7 -64q0 -23 9 -32
t34 -9q34 2 91 17q16 3 22 -11q4 -17 -16 -24v-2q-66 -21 -133 -15q-27 3 -41 37q-8 30 -5 51l13 82q6 27 17.5 84.5t17.5 85.5q21 112 32 160q15 62 15 113q0 23 -2 31q-3 18 -8.5 22t-26.5 2q-4 0 -12 1t-13 1q-6 6 -6 14q2 9 2 13q19 16 35 16q32 0 66 37q34 34 63 94
q24 51 80 187q8 21 123 311q5 13 37 80q18 34 43 53q52 42 98 6z" />
    <glyph glyph-name="bar" unicode="|" horiz-adv-x="374" 
d="M78 -127q-21 5 -17 37q1 10 11 53q20 113 59 320.5t47 253.5q11 63 26.5 126t41.5 159.5t33 123.5q9 32 26.5 94.5t20.5 73.5q10 28 16 35q8 7 18 4q9 -3 13 -14q2 -9 2 -12.5t-2.5 -13t-3.5 -13.5l-84 -324q-14 -53 -27.5 -115.5t-22 -106.5t-22 -119t-20.5 -111
l-62 -330q-6 -39 -4 -45q7 -8 3 -23t-7 -20.5t-12 -18.5q-13 -20 -33 -14z" />
    <glyph glyph-name="braceright" unicode="}" horiz-adv-x="585" 
d="M471 737q-3 -10 -15 -47t-18 -60.5t-10 -47.5q-14 -72 37 -111q16 -12 24 -20h-2q10 -8 7 -21.5t-15 -19.5q-46 -26 -68.5 -66t-41.5 -104q-29 -102 -39 -181q-11 -67 -37 -139q-2 -8 -9.5 -24.5t-9.5 -22.5q-46 -104 -174 -143q-4 -2 -14 -2h2q-17 -3 -24 12t4 29
q21 34 61 51q13 0 18 -8q1 -3 1 -6v-6l-1 -3q-7 -11 -10 -12q57 22 92 82q21 39 33 78q23 72 39 159q13 75 33 146q38 120 110 184q-1 2 -6 6.5t-10 8.5q-52 46 -37 120q6 43 43 170q57 156 60 166q37 130 53 223q8 45 -2 91q-4 16 -10 26q-6 8 -13.5 7.5t-29.5 -9.5
q-4 -4 -12 -4.5t-13 6.5q-7 23 10 33q28 17 55 10.5t41 -31.5q13 -26 13 -67q0 -48 -15 -121q-42 -181 -100 -332z" />
    <glyph glyph-name="asciitilde" unicode="~" 
 />
    <glyph glyph-name="exclamdown" unicode="&#xa1;" 
 />
    <glyph glyph-name="cent" unicode="&#xa2;" 
 />
    <glyph glyph-name="sterling" unicode="&#xa3;" 
 />
    <glyph glyph-name="currency" unicode="&#xa4;" 
 />
    <glyph glyph-name="yen" unicode="&#xa5;" 
 />
    <glyph glyph-name="brokenbar" unicode="&#xa6;" 
 />
    <glyph glyph-name="section" unicode="&#xa7;" 
 />
    <glyph glyph-name="copyright" unicode="&#xa9;" 
 />
    <glyph glyph-name="guillemotleft" unicode="&#xab;" horiz-adv-x="473" 
d="M293 371q1 -1 14 -6t18.5 -15t0.5 -28q-9 -4 -17 -5t-14.5 1.5t-10.5 5t-10.5 7t-7.5 5.5l-94 57q-62 36 -78 45q-12 6 -24 15q-20 19 4 43q3 5 10 9t8 5q121 84 234 188q2 1 6.5 6.5t10 9.5t11.5 5h2h9q6 -3 6 -12q1 -6 -1 -11t-6.5 -10t-5.5 -6v-2q-20 -16 -55 -46
t-45 -38q-47 -44 -137 -109q-8 -7 -7 -8l5 -4q68 -37 166 -98zM473 707q1 -6 -1 -11t-6 -10l-5 -6v-2q-15 -12 -32 -26t-37 -31t-32 -27q-47 -44 -137 -109q-8 -7 -7 -8l5 -4q68 -37 166 -98l8 -4q1 -1 14 -6t18.5 -15t0.5 -28q-9 -4 -16.5 -5t-14.5 1.5t-11 5t-9.5 7
t-7.5 5.5l-95 57q-69 41 -77 45q-15 7 -25 15q-20 19 4 43q3 5 10.5 9t8.5 5q117 81 233 188q2 1 6.5 6.5t10.5 9.5t12 5h2h8q6 -3 6 -12z" />
    <glyph glyph-name="logicalnot" unicode="&#xac;" 
 />
    <glyph glyph-name="registered" unicode="&#xae;" 
 />
    <glyph glyph-name="degree" unicode="&#xb0;" 
 />
    <glyph glyph-name="plusminus" unicode="&#xb1;" 
 />
    <glyph glyph-name="paragraph" unicode="&#xb6;" 
 />
    <glyph glyph-name="periodcentered" unicode="&#xb7;" 
 />
    <glyph glyph-name="guillemotright" unicode="&#xbb;" horiz-adv-x="473" 
d="M358 530q-3 -5 -10 -9t-8 -5q-121 -84 -234 -188q-2 -1 -6.5 -6.5t-10 -9.5t-11.5 -5h-2h-8q-7 3 -7 12q0 6 2 11t7 10l4 6l2 2q17 14 49 42t49 42q42 38 137 109q8 6 8 6.5t-4 5.5q-38 20 -168 98l-8 4q-1 1 -14 6.5t-18.5 15.5t-0.5 28q9 4 17 4.5t14.5 -2t11 -5t10 -7
t7.5 -5.5q18 -10 50 -30t44 -27q62 -36 78 -45q12 -6 24 -15q20 -19 -4 -43zM465 573q19 -19 -4 -43q-3 -5 -10.5 -9t-8.5 -5q-117 -81 -233 -188q-2 -1 -6.5 -6.5t-10.5 -9.5t-12 -5h-2h-8q-6 3 -6 12t12 27l2 2q17 14 49 42t49 42q37 34 138 109q8 6 8 6.5t-4 5.5
q-38 20 -168 98l-8 4q-1 1 -14 6.5t-18.5 15.5t-0.5 28q9 4 16.5 4.5t14 -2t11 -5t10 -7t7.5 -5.5q18 -10 50 -30t44 -27q61 -36 78 -45q15 -8 25 -15z" />
    <glyph glyph-name="questiondown" unicode="&#xbf;" 
 />
    <glyph glyph-name="multiply" unicode="&#xd7;" horiz-adv-x="294" 
d="M78 410q-8 -3 -15 4q-4 8 -2 14l3 6q3 6 8 10q16 14 47 45q19 15 24 19t6.5 11.5t-3 10t-19.5 13.5q-12 9 -18 18q-8 8 -11 23q9 10 20 12t17 -6h-2q24 -18 45 -39q9 -6 17 2q5 4 16.5 13t17.5 12l37 30q18 14 29 -4l-4 -20q-8 -4 -15 -11l-30 -24q-5 -4 -12.5 -9.5
t-9 -7.5t-6 -5t-3 -5.5t0.5 -4.5t3.5 -6.5t7 -7.5t9.5 -11l6 -6l6.5 -6.5t6 -6.5t6 -7.5l4.5 -7.5t4.5 -8.5t3 -9t1.5 -10.5q-3 -14 -14 -18q-16 -8 -20 6q-15 38 -50 59q-11 10 -14 10t-14 -10l-64 -53q-12 -8 -20 -14z" />
    <glyph glyph-name="divide" unicode="&#xf7;" horiz-adv-x="344" 
d="M221 590q-21 0 -18 26q3 25 28 25q12 0 19.5 -7.5t5.5 -17.5q-1 -10 -12 -18t-23 -8zM76 492q-12 8 -13 10q-4 4 3.5 13t15.5 9h-2l39 6h2h80q2 0 116 7q13 0 17 -2q13 -3 10 -17q0 -12 -14 -16q-18 -6 -25 -6q-38 -1 -112 -2t-111 -2h-6zM178 385q-12 -1 -18.5 9
t-1.5 22q9 21 28 18q18 -6 15 -26q-1 -9 -8 -16t-15 -7z" />
    <glyph glyph-name="endash" unicode="&#x2013;" horiz-adv-x="344" 
d="M76 489q-11 7 -13 11q-4 4 3.5 13t15.5 9h-2l39 6h2h80q2 0 116 7q11 0 17 -3q13 -3 10 -16q0 -12 -14 -16q-18 -6 -25 -6q-37 -1 -111 -2.5t-112 -2.5h-6z" />
    <glyph glyph-name="emdash" unicode="&#x2014;" horiz-adv-x="344" 
d="M76 489q-11 7 -13 11q-4 4 3.5 13t15.5 9h-2l39 6h2h80q2 0 116 7q11 0 17 -3q13 -3 10 -16q0 -12 -14 -16q-18 -6 -25 -6q-37 -1 -111 -2.5t-112 -2.5h-6z" />
    <glyph glyph-name="quoteleft" unicode="&#x2018;" horiz-adv-x="149" 
d="M131 1296q22 -13 16 -34q-14 -63 -36 -76l-27 -15q-4 -2 -10 0.5t-9.5 5t-3.5 1.5q-3 14 7 24q18 12 26 25q6 9 7 12t0 5t-7 5q-6 6 -6 15q-4 20 16 30h-2q11 8 27 4zM61 1176v2v-2z" />
    <glyph glyph-name="quoteright" unicode="&#x2019;" horiz-adv-x="149" 
d="M131 1296q22 -13 16 -34q-14 -63 -36 -76l-27 -15q-4 -2 -10 0.5t-9.5 5t-3.5 1.5q-3 14 7 24q18 12 26 25q6 9 7 12t0 5t-7 5q-6 6 -6 15q-4 20 16 30h-2q11 8 27 4zM61 1176v2v-2z" />
    <glyph glyph-name="quotesinglbase" unicode="&#x201a;" horiz-adv-x="165" 
d="M88 72q-12 -8 -21.5 -2t-3.5 22q0 1 5 6l-2 -2q4 5 10 10l6 5q13 17 20 30l2 2q3 3 0 13q-27 34 15 59q19 11 33.5 4t13.5 -26v-3q0 -6 -2 -10v-2q-19 -54 -55 -94q-5 -8 -21 -12z" />
    <glyph glyph-name="quotedblleft" unicode="&#x201c;" horiz-adv-x="210" 
d="M131 1296q22 -13 16 -34q-14 -63 -36 -76l-27 -15q-4 -2 -10 0.5t-9.5 5t-3.5 1.5q-3 14 7 24q18 12 26 25q6 9 7 12t0 5t-7 5q-6 6 -6 15q-4 20 16 30h-2q11 8 27 4zM193 1296q22 -13 16 -34q-13 -62 -37 -76l-27 -15q-4 -2 -9.5 0.5t-9 5t-3.5 1.5q-3 15 6 24
q20 13 27 25q6 9 7 12t0 5t-7 5q-6 6 -6 15q-4 20 16 30h-2q10 8 26 4zM61 1176v2v-2zM123 1176v2v-2z" />
    <glyph glyph-name="quotedblright" unicode="&#x201d;" horiz-adv-x="210" 
d="M131 1296q22 -13 16 -34q-14 -63 -36 -76l-27 -15q-4 -2 -10 0.5t-9.5 5t-3.5 1.5q-3 14 7 24q18 12 26 25q6 9 7 12t0 5t-7 5q-6 6 -6 15q-4 20 16 30h-2q11 8 27 4zM193 1296q22 -13 16 -34q-13 -62 -37 -76l-27 -15q-4 -2 -9.5 0.5t-9 5t-3.5 1.5q-3 15 6 24
q20 13 27 25q6 9 7 12t0 5t-7 5q-6 6 -6 15q-4 20 16 30h-2q10 8 26 4zM61 1176v2v-2zM123 1176v2v-2z" />
    <glyph glyph-name="quotedblbase" unicode="&#x201e;" horiz-adv-x="165" 
d="M119 215q19 11 33.5 4t13.5 -26v-3q0 -6 -2 -10v-2q-19 -54 -55 -94q-5 -8 -21 -12q-12 -8 -21.5 -2t-3.5 22q0 1 5 6l-2 -2q4 5 10 10l6 5q13 17 20 30l2 2q3 3 0 13q-27 34 15 59z" />
    <glyph glyph-name="dagger" unicode="&#x2020;" 
 />
    <glyph glyph-name="daggerdbl" unicode="&#x2021;" 
 />
    <glyph glyph-name="bullet" unicode="&#x2022;" 
 />
    <glyph glyph-name="ellipsis" unicode="&#x2026;" 
 />
    <glyph glyph-name="perthousand" unicode="&#x2030;" 
 />
    <glyph glyph-name="guilsinglleft" unicode="&#x2039;" horiz-adv-x="370" 
d="M371 707q1 -6 -1 -11t-6.5 -10t-5.5 -6v-2q-20 -16 -55 -46t-45 -38q-47 -44 -137 -109q-8 -7 -7 -8l5 -4q68 -37 166 -98l8 -4q1 -1 14 -6t18.5 -15t0.5 -28q-9 -4 -17 -5t-14.5 1.5t-10.5 5t-10.5 7t-7.5 5.5l-94 57q-62 36 -78 45q-12 6 -24 15q-20 19 4 43q3 5 10 9
t8 5q121 84 234 188q2 1 6.5 6.5t10 9.5t11.5 5h2h9q6 -3 6 -12z" />
    <glyph glyph-name="guilsinglright" unicode="&#x203a;" horiz-adv-x="370" 
d="M362 573q20 -19 -4 -43q-3 -5 -10 -9t-8 -5q-121 -84 -234 -188q-2 -1 -6.5 -6.5t-10 -9.5t-11.5 -5h-2h-8q-7 3 -7 12q0 6 2 11t7 10l4 6l2 2q17 14 49 42t49 42q42 38 137 109q8 6 8 6.5t-4 5.5q-38 20 -168 98l-8 4q-1 1 -14 6.5t-18.5 15.5t-0.5 28q9 4 17 4.5
t14.5 -2t11 -5t10 -7t7.5 -5.5q18 -10 50 -30t44 -27q62 -36 78 -45q12 -6 24 -15z" />
    <glyph glyph-name="fraction" unicode="&#x2044;" horiz-adv-x="538" 
d="M88 -147q-11 -2 -19.5 7t-7.5 19q1 8 11 37q199 586 243 725q20 64 45 134t58.5 162t48.5 134q25 68 47 94q9 9 18 6q7 -3 7 -16q0 -11 -7 -25q-127 -396 -206 -630q-33 -97 -99.5 -291.5t-99.5 -292.5q-11 -28 -21 -49q-7 -14 -18 -14z" />
    <glyph glyph-name="Euro" unicode="&#x20ac;" 
 />
    <glyph glyph-name="trademark" unicode="&#x2122;" horiz-adv-x="2062" 
d="M2154 451q15 -6 11 -21t-19 -37q-176 -239 -223 -262q-44 -22 -77.5 -14.5t-65.5 45.5q-36 48 -43 88q-14 72 -27 151q-3 17 -8 52.5t-8 54.5q-4 22 -8 33q-16 42 -52 14q-9 -6 -18 -14.5t-20 -19t-17 -15.5q-77 -85 -160 -199q-28 -40 -65 -84q-27 -34 -56 -49
q-31 -19 -54.5 -7.5t-29.5 46.5q-2 9 -2.5 26t-1.5 21q4 81 35 197q12 44 80 264q34 116 41 168q4 14 4 47q0 6 -4.5 8t-9.5 0q-11 -4 -35 -18q-77 -61 -150 -146q-158 -196 -272 -436q-83 -172 -162 -348q-10 -20 -34 -73.5t-39 -82.5q-15 -30 -37 -55q-15 -17 -34 -12
t-24 26q-4 20 -4 60q-2 88 35 272q11 53 23.5 105t32.5 118.5t29.5 98.5t37 117t33.5 102q22 67 64 200t63 199l-119 -12q-49 -5 -140.5 -16.5t-119.5 -14.5q-42 -3 -51 -49q-107 -449 -174 -860q-6 -42 -19.5 -122t-19.5 -116q-4 -32 -17 -43q-8 -8 -18 -8q-15 0 -19 14
q-4 10 0 41l50 297q62 371 157 762q4 13 8 39q3 12 -3.5 19t-18.5 4q-70 -11 -150 -31q-21 -4 -348 -74q-33 -8 -53 -4q-12 4 -12 14q1 2 1.5 6.5t1.5 7.5t3 5q16 12 57 20l314 68q139 31 190 39q22 5 34 15t15 30t17 65q3 12 11.5 19t16.5 4q18 -11 15 -35l-9 -45
q-3 -18 4 -24t31 -5q93 15 94 15q46 5 142 14t145 14q9 19 14 25q16 23 35 12q18 -15 13 -31q13 1 36.5 4.5t34.5 4.5h47q16 -3 19 -19q3 -17 -15 -26l-26 -7q-20 -2 -59 -5t-58 -5q-14 -40 -61 -200q-19 -60 -54.5 -168.5t-64.5 -198.5t-53 -170q-60 -198 -82 -379
q-4 -20 -4 -33q0 -1 -0.5 -6t0 -7t2.5 -4.5t6 -2.5t7 2t4 3.5t4 6.5l3 4q4 10 13.5 31t13.5 31q18 39 65.5 144t73.5 161q125 269 279 473q86 115 174 186q22 17 59 43q16 8 37 15q50 6 59 -41q6 -32 -2 -95q-19 -97 -57 -213q-59 -184 -78 -270q-20 -86 -20 -133
q0 -17 8 -23q13 -5 24 9q51 55 64 75q107 142 156 195q37 43 79 82q28 24 60 27q51 3 71 -39q15 -30 21 -64l25 -180q12 -74 28 -109q23 -51 53.5 -58.5t73.5 26.5q9 7 29.5 33.5t72 95.5t85.5 114q2 2 7.5 7t8.5 6q11 8 24 -2z" />
    <glyph glyph-name="partialdiff" unicode="&#x2202;" 
 />
    <glyph glyph-name="emptyset" unicode="&#x2205;" 
 />
    <glyph glyph-name="product" unicode="&#x220f;" 
 />
    <glyph glyph-name="summation" unicode="&#x2211;" 
 />
    <glyph glyph-name="minus" unicode="&#x2212;" horiz-adv-x="344" 
d="M76 489q-11 7 -13 11q-4 4 3.5 13t15.5 9h-2l39 6h2h80q2 0 116 7q11 0 17 -3q13 -3 10 -16q0 -12 -14 -16q-18 -6 -25 -6q-37 -1 -111 -2.5t-112 -2.5h-6z" />
    <glyph glyph-name="radical" unicode="&#x221a;" 
 />
    <glyph glyph-name="infinity" unicode="&#x221e;" 
 />
    <glyph glyph-name="integral" unicode="&#x222b;" 
 />
    <glyph glyph-name="approxequal" unicode="&#x2248;" 
 />
    <glyph glyph-name="notequal" unicode="&#x2260;" 
 />
    <glyph glyph-name="lessequal" unicode="&#x2264;" 
 />
    <glyph glyph-name="greaterequal" unicode="&#x2265;" 
 />
    <glyph glyph-name="lozenge" unicode="&#x25ca;" 
 />
    <glyph glyph-name="a_a" horiz-adv-x="1077" 
d="M344 82q-64 -16 -82 47q-7 25 -4 68q7 65 33 176q0 2 3 8.5t3 9.5t-2 10q-9 2 -25 -14q-72 -82 -96 -104q-48 -51 -104 -76q-37 -15 -63 0.5t-27 54.5q-3 22 4 49q27 118 112 203q9 9 33 29q79 58 156 4q10 -5 22 -17q7 0 13 3t9 6t7.5 10t5.5 8q18 24 68 96l18 25
q15 15 29 4q15 -12 10 -25q-1 -3 -25 -51q-94 -180 -125 -342q-15 -69 -8 -117q2 -9 11 -13.5t18 -0.5q27 11 65 45q105 96 183 225q32 58 69 86q69 53 140 13q17 -9 23 -8t16 16q0 1 73 108q15 25 27 33q9 5 21 -1.5t12 -16.5q0 -17 -6 -29l-50 -121q-27 -74 -39 -149
q-6 -47 7 -86q19 -54 67 -23q39 27 62 60q5 6 98 127l29 34q19 22 36 5q16 -13 0 -33q-28 -43 -65 -90q-52 -73 -96 -115q-31 -31 -66 -45q-34 -16 -70 6q-48 33 -51 94q-4 63 6 105q1 5 5 37q-12 -5 -20 -12t-18 -19.5t-10 -13.5q-65 -74 -88 -97q-26 -26 -47 -39
q-41 -27 -80 2q-3 2 -7 7.5t-8.5 8.5t-10.5 3q-6 -3 -12.5 -8t-10.5 -10t-10 -13t-10 -12q-46 -53 -105 -96q-29 -22 -53 -29zM49 254q19 6 53 31q32 25 64.5 59t53 58.5t54.5 68.5l5 10q-1 1 -2.5 5.5t-2.5 5.5q-50 50 -106 16q-6 -3 -39 -31q-72 -72 -100 -182v-25
q0 -9 6 -13.5t14 -2.5zM610 268q17 4 19 6q63 45 141 154q10 13 -4 27q-21 24 -51 10q-35 -11 -49 -35q-4 -7 -23 -33.5t-28 -45.5t-13 -40q-4 -18 -2 -28q0 -5 10 -15z" />
    <glyph glyph-name="a_n_d" horiz-adv-x="1515" 
d="M1360 6q-17 21 -21 31q-34 75 -34 162q-3 129 32 295l37 145q8 27 4 41q-7 -5 -13.5 -13.5t-13 -19.5t-10.5 -16l-110 -156q-27 -40 -64 -67q-35 -28 -57 -28t-59 28l-50 -37q-129 -94 -188 55q-5 12 -14.5 37.5t-14.5 38.5q-14 32 -43 12q-10 -7 -20.5 -16.5t-16.5 -16
t-17.5 -19.5t-16.5 -18q-43 -53 -95 -137q-12 -22 -34 -51q-12 -20 -31 -14q-9 2 -15 12t-3 22l18 72q4 22 8 35q-4 0 -7 0.5t-5.5 -0.5t-4 -2t-3 -3t-2.5 -3t-2 -3t-2 -3l-105 -131q-44 -55 -86 -80q-41 -28 -68.5 -15t-33.5 64q-4 43 12 129q1 7 7.5 32.5t6.5 39.5
q-9 -2 -15 -6t-13.5 -13t-8.5 -10q-58 -62 -67 -72q-19 -22 -43 -37q-30 -23 -58 -6q-15 8 -18.5 24.5t0.5 30.5q0 16 6 31q30 102 101 182q65 68 133 31q19 -11 30 8l68 111q2 3 5.5 9t6 10t6.5 8.5t9 7.5q9 9 22 2q12 -6 12 -21q-1 -14 -20 -51q-54 -115 -98 -235
q-31 -94 -33 -150q-3 -24 0 -51q0 -10 8.5 -13t17.5 3q28 20 43 35q59 68 72 86q136 171 248 362q13 26 31 47q5 8 22 4q18 -11 15 -24q-2 -9 -9.5 -25.5t-9.5 -21.5q-30 -64 -72 -164q-13 -27 -8 -41q8 1 14 6t12 13t9 11q47 51 80 72q59 39 98 -24q13 -21 29 -68
q4 -8 10 -25.5t10 -25.5q25 -45 72 -25q42 16 76 62q2 3 43 61q66 95 67 96q11 15 46 41q50 44 102 17q17 -8 24 -5.5t17 19.5q141 217 231 403q6 15 33 60q11 14 27 2q10 -5 10 -21l-6 -24q-4 -8 -12.5 -24.5t-12.5 -24.5q-132 -285 -188 -518q-45 -184 -45 -312
q-3 -61 10 -110q12 -39 33 -52q12 -9 12.5 -25.5t-10.5 -29.5q-6 -8 -19.5 -8.5t-19.5 6.5zM1118 436q14 4 17 8q61 51 125 160q2 2 2 10q-1 2 -4.5 5.5t-4.5 5.5q-17 12 -39 -2q-85 -61 -112 -158v-19q0 -5 6 -9t10 -1zM61 328q8 0 27 14q78 81 121 141l8 15q3 9 -3 16.5
t-15 9.5q-24 3 -39 -12q-85 -85 -101 -180v-1q2 -2 2 -3z" />
    <glyph glyph-name="e_e" horiz-adv-x="864" 
d="M125 66q-79 15 -94 92q-3 16 -6.5 43t-4.5 35q12 232 189 387q9 9 47 28q38 16 63 -6q25 -17 17 -61q-4 -32 -35 -80q-78 -120 -178 -178q-33 -19 -43 -44t-8 -63l6 -49q12 -51 63 -57q36 -5 74 10q64 27 167 112q7 6 11 9q14 11 17 32q8 131 131 244q46 43 94 43
q54 0 51 -55q-2 -21 -22 -57q-23 -40 -64 -84q-41 -39 -119 -117q-9 -8 -7 -17t11 -14q40 -17 72 -10q69 19 119 53q95 62 217 164q33 28 39 31q16 10 29 -6q11 -15 0 -29q-6 -9 -23 -21q-111 -100 -246 -186q-44 -29 -106 -49q-79 -26 -137 18q-27 19 -54 -2
q-79 -66 -155 -102q-58 -25 -115 -14zM109 381q1 0 6.5 2t7.5 4q91 67 145 158q6 11 19 45q0 7 -6 10q-2 2 -11 2q-20 -10 -22 -12q-101 -78 -144 -201q0 -1 1 -2t2 -2.5t2 -3.5zM481 319q97 86 144 162l6 19q0 13 -13 10q-18 -6 -22 -8q-91 -68 -123 -164q-4 -12 8 -19z
" />
    <glyph glyph-name="l_l" horiz-adv-x="755" 
d="M524 -121q-9 -12 -24 -10.5t-21 16.5q0 5 -4 13q-3 24 -9 67.5t-9.5 68t-6 70.5t2.5 74q4 36 4 76q0 8 -6 8q-6 3 -11 -2q-4 -4 -24 -29q-38 -50 -97 -120q-53 -66 -104 -107q-40 -32 -70 -41q-45 -15 -80.5 3t-50.5 63q-9 35 -12 67q-6 74 4 162q1 12 6 41.5t6 42.5
t-2 43q0 8 2 12q19 35 38 103t28 90q3 6 32.5 79t47.5 109q78 167 155 275q54 70 84 98q23 23 48 31q24 5 39 -6t18 -35q3 -28 -8 -60q-20 -70 -66 -153q-144 -269 -323 -484q-34 -42 -39 -82q-25 -141 -23 -235q0 -46 14 -84q15 -49 68 -33q24 8 57 37q61 52 105 107
q159 208 166 217q27 37 39 82q54 183 133 340q55 104 106 168q11 16 58 63q19 19 43 25q15 2 27.5 -7t13.5 -24q3 -21 -7 -41q-21 -55 -38 -92q-71 -148 -177 -305q-72 -113 -106 -160q-24 -40 -29 -70q-33 -199 -14 -332q1 -4 2 -14l1.5 -15t2.5 -13t5 -13t8 -11t12 -11
q12 -9 4 -29q-5 -16 -19 -33zM119 539l-2 4q13 -5 16 -2q16 13 25 28q132 177 239 381q41 81 58 137q4 16 4 25q0 2 -6 8h-7q-16 -12 -24 -20q-43 -43 -100 -133q-105 -167 -183 -371q-15 -45 -24 -55zM610 606q32 35 81 117t91 172q1 2 8.5 14.5t10.5 22t2 20.5
q-52 -44 -118 -163t-75 -183z" />
    <glyph glyph-name="n_T_i" horiz-adv-x="1566" 
d="M1718 1120q3 -17 -14 -26l-27 -7q-201 -17 -293 -28q-49 -5 -140.5 -16.5t-119.5 -14.5q-42 -3 -51 -49q-107 -449 -174 -860q-6 -42 -19.5 -122t-19.5 -116q-4 -33 -16 -43q-8 -8 -19 -8q-15 0 -18 14q-4 10 0 41l49 297q47 281 125 621q-41 -76 -88 -151.5t-104 -154
t-112.5 -140t-114 -105t-107.5 -53.5q-58 -9 -84 41q-21 43 -23 75q-7 76 -14 121q-2 12 -11 15.5t-18 -5.5q-45 -40 -61 -61q-108 -125 -187 -287q-2 -4 -6 -12.5t-6 -13t-6.5 -12.5t-8 -12.5t-9 -10.5t-11.5 -10q-15 -11 -31.5 -4.5t-17.5 26.5q-2 8 -2 27q5 38 8 51
q32 120 43 156q44 121 115 307q5 11 31 59q6 10 16.5 13t17.5 -3q19 -11 11 -34l-13 -25q-20 -52 -60 -156.5t-60 -156.5q-1 -5 -6 -18t-7 -20t-2 -18t4 -20q59 108 160 227q47 51 82 70q50 27 78 -25q7 -15 12 -51q2 -17 5 -50t5 -50q3 -35 19 -64q9 -21 35 -14
q72 19 164 115t169 215t135 224.5t80 162.5l15 33q-9 5 -17 2q-67 -11 -149 -31q-21 -4 -348 -74q-33 -8 -53 -4q-13 4 -13 14q1 2 1.5 6.5t1.5 7.5t3 5q15 11 58 20l313 68q137 30 191 39q22 5 34 15t15 30q5 28 16 65q3 12 12 19t17 4q18 -10 14 -35l-8 -45q-3 -18 4 -24
t31 -5q93 15 94 15q47 5 145 14t148 14q22 2 65 7.5t62 7.5h47q15 -3 18 -19zM1327 596q-14 -2 -24 9t-11 30q0 37 37 37q17 0 28 -9.5t13 -23.5q0 -17 -13 -30t-30 -13zM1661 457q11 -8 8 -25q-3 -13 -12 -22q-139 -178 -234 -258q-43 -38 -67 -52q-29 -17 -62 -24
q-34 -8 -62 8t-38 49q-8 20 -8 74q20 161 59 258q16 36 31 51q15 12 31 2q14 -7 10 -22q-1 -2 -5.5 -14t-6.5 -17q-43 -91 -66 -258q-3 -26 4 -53q3 -13 15 -20.5t26 -4.5q29 4 78 39q69 56 151 149q19 21 51 60.5t44 54.5q10 13 28 27q10 10 25 -2z" />
    <glyph glyph-name="o_o" horiz-adv-x="860" 
d="M115 106q-43 -17 -78 2.5t-49 61.5q-11 32 -8 74q10 115 67 188q22 25 27 55q7 41 34 66.5t64 28.5q87 6 123 -74q12 -27 16 -80q3 -26 9 -30.5t34 1.5q44 9 84 21q108 37 168 80q10 7 23 10t20 -10q10 -10 4 -23q-6 -8 -20 -22q-73 -59 -103 -174q-7 -40 -2 -68
q7 -32 33 -41q20 -7 45 14q22 20 29 50.5t-4 58.5q-3 7 -12.5 24t-12.5 27q-6 12 -0.5 23t19.5 16l30 6q152 18 252 58q15 6 37 6q12 0 19 -13q3 -16 -9 -28l-12 -6q-11 -4 -39.5 -14t-49 -16t-40.5 -9q-28 -5 -137 -29q-2 -12 3 -30.5t5 -20.5q13 -94 -51 -144
q-46 -37 -93.5 -19t-58.5 75q-9 57 8 110q1 3 25 78q-27 -7 -70 -19t-59 -16q-4 -1 -34 -5t-44 -11q-10 -6 -16 -18t-10.5 -29t-8.5 -25q-42 -83 -104 -129q-28 -21 -53 -31zM242 399q12 0 18 13q0 3 1 8.5t1 7.5q0 48 -18 72q-20 31 -53.5 33.5t-55.5 -25.5q-12 -12 -6 -23
q1 -2 7 -14.5t8 -15.5t8 -12.5t10 -13t11 -9.5t15 -8.5t17 -3.5q7 0 20 -4t17 -5zM111 160q17 9 34 22q60 49 93 129q8 20 5 27.5t-22 13.5q-63 20 -108 45q-22 13 -35 -8q-43 -62 -49 -156q0 -20 2 -30q6 -35 27.5 -46.5t52.5 3.5z" />
    <glyph glyph-name="r_r" horiz-adv-x="1032" 
d="M-18 -111q-21 6 -21 27q-3 24 2 43q18 112 35 182q71 262 166 467q19 37 26 49q12 16 29 7q17 -10 10 -27q-2 -8 -9 -23.5t-9 -21.5q-104 -221 -174 -502q-1 -4 -2 -13t-2 -14q8 1 13.5 5.5t7.5 8.5t5 11.5t4 9.5q69 151 142 260q27 45 67 91q11 14 37 32q20 12 39.5 6
t26.5 -28q12 -25 16 -78q0 -37 12 -74q16 -37 52 -18q30 15 61 39q65 50 150 157q33 38 36 41q11 14 29 0q10 -7 6 -20q-2 -7 -18 -39q-48 -85 -88 -219q-1 -2 2 -12q7 2 12.5 6.5t12 14t8.5 11.5q39 49 73 76q58 45 115 14q56 -34 115 11l98 75q27 22 35 27q16 8 26 -6
q10 -10 2 -29l-12 -12q-20 -16 -117 -94q-83 -64 -167 -17q-31 15 -64 -8q-34 -24 -63 -65q-49 -63 -105 -170q-15 -31 -27 -47q-12 -12 -22 -9q-18 6 -18 23q-2 8 2 24q8 74 47 205q1 3 5.5 16t3.5 16t-3 17q-9 1 -27 -12q-45 -36 -63 -47q-57 -35 -98 -17.5t-54 83.5
q0 2 -6 67q-4 22 -8 29q-1 4 -7 5.5t-10 -1.5q-22 -15 -45 -49q-75 -111 -137 -236q-63 -136 -88 -186q-11 -21 -33 -51q-11 -18 -32 -11z" />
    <glyph glyph-name="s_s" horiz-adv-x="792" 
d="M891 451q6 -6 4.5 -16.5t-8.5 -16.5l-49 -37q-126 -87 -234 -184q-1 -1 -74 -68q-27 -27 -30 -66q-2 -13 -5.5 -26.5t-9 -30t-8.5 -26.5q-9 -31 -33 -58q-11 -14 -28 -24q-15 -8 -32.5 -7t-27.5 11q-18 19 -12 51q7 25 29 59q8 10 30 39.5t35 44.5q21 29 21 45l6 271
q-16 7 -25 -6l-182 -222q-27 -34 -20 -67q2 -11 2.5 -33t1.5 -29q5 -102 -56 -207q-23 -42 -59 -63q-11 -7 -33 -14q-48 -9 -63 36q-15 37 -6 78q12 62 47 115q34 56 88 135q19 27 10 64q-23 68 -59 135q-6 13 -22 42t-23 46q-34 73 -15 154.5t82 130.5q7 7 37 22
q42 15 78.5 -6.5t40.5 -65.5q8 -74 -41 -153l-8 -8q-2 0 -6 -0.5t-7 -0.5t-6 1q-4 0 -4 10q-3 10 6 37q19 47 21 78q0 24 -2 36q-4 15 -19.5 23.5t-29.5 3.5q-22 -11 -23 -12q-44 -29 -65.5 -90.5t-4.5 -112.5q5 -21 19 -45q58 -105 90 -184q3 -8 10 -15q7 2 12.5 6.5
t11.5 12t9 10.5l188 231q54 61 80 117q17 35 70 88q12 12 24 15q9 5 19.5 -5t7.5 -20q-3 -15 -12 -27q-48 -69 -62 -86q-34 -42 -43 -100q-14 -73 -14 -254q0 -11 8 -14q6 -1 17 4q14 12 82.5 68t105.5 85q32 27 108 82q4 3 13.5 8.5t13.5 8.5q17 12 33 -4zM193 41
q0 25 -7 29q-11 5 -22 -17q-30 -46 -68 -110q-15 -25 -22 -70q-4 -19 -1 -34t11 -15q19 -2 41 24q65 87 68 177v16zM420 -37q8 -4 8 2l-4 6q-8 0 -8 -6q2 -2 2 -4v2h2zM416 -35q2 2 4 2q0 -2 -2 -4z" />
    <glyph glyph-name="t_h" horiz-adv-x="1206" 
d="M180 -141q-35 -22 -68.5 -12t-52.5 47q-19 39 -26 108q-6 117 6 234q22 269 119 575q19 60 12 69t-70 3q-10 -1 -30.5 -2t-30.5 -2q-34 -4 -45 -17q-7 -8 -29 -4q-1 1 -5 2t-6 2t-5.5 3t-5 4t-3 5t-1.5 7q-1 9 5 13.5t19 8.5q24 6 50.5 9.5t64 6.5t51.5 5q11 1 24.5 2
t17.5 0.5t12 2.5t8.5 3t5.5 7.5t5.5 10.5t6 17.5t8.5 23.5q72 186 113 262q15 25 37 58q10 14 26 14t21 -10q2 -4 2 -19l-6 -10q-17 -24 -33 -52.5t-27 -49.5t-26 -57t-21 -52t-22.5 -59t-20.5 -55q-12 -31 23 -31q13 1 36.5 2.5t43 2.5t36.5 1q62 2 183.5 5t183.5 5h17
q42 1 50 9q6 5 16 25q9 17 15 28l58 100q9 18 22 31q6 7 16.5 10t16.5 -2q15 -13 8 -35q-12 -29 -14 -33l-49 -94q-12 -16 -4 -33q19 -1 120 4q181 12 359 21q27 3 61 -4q7 0 12 -7.5t3 -15.5q-4 -21 -21 -18q-65 3 -93.5 2t-92.5 -6t-92 -6q-31 -1 -119 -7.5t-135 -7.5
q-25 0 -40 -10t-28 -33q-38 -68 -68 -139q-86 -185 -137 -422q-10 -47 -18 -141q-6 -23 8 -27q7 -2 18 15l47 73q18 25 52 77t51 77q18 26 53 61q20 20 39 31q18 10 36 5t25 -25q5 -11 15 -54q1 -8 1 -24.5t1 -24.5q0 -27 4 -37q7 -37 23.5 -46t50.5 5q41 15 86 60l108 110
q2 2 7 6t8 6.5t7.5 5t8.5 3.5q14 0 22 -8q10 -13 3 -23q-3 -8 -11 -16q-114 -113 -137 -136q-49 -46 -98 -59q-92 -29 -121 59q-5 13 -6.5 26t-2.5 34t-1 26q-1 4 -1 13t-0.5 14.5t-3 11t-8.5 7.5q-9 4 -16 1t-17 -15l-10 -13q-30 -34 -106 -152q-48 -76 -80 -125
q-15 -24 -39 -41q-17 -12 -35 -5.5t-24 26.5q-6 21 -6 47q-2 97 30 234q4 17 13.5 51t13.5 51q8 27 -4 41q-164 -288 -283 -463q-64 -91 -108 -135q-32 -35 -62 -51zM164 -92q30 24 59 53q69 79 119 160l434 713q8 13 25 51q4 15 -13 18h-24h-242v-4q-158 -4 -239 -8h-27
q-21 0 -27 -21q-9 -22 -10 -28q-110 -339 -135 -641q-7 -107 -2 -187q0 -46 18 -90q19 -52 64 -16z" />
    <glyph glyph-name="t_h_e" horiz-adv-x="1470" 
d="M1569 442q6 -12 4 -16q-9 -22 -14 -27t-39.5 -44t-43.5 -49t-38.5 -41t-46.5 -46t-43.5 -36.5t-51.5 -37.5q-51 -32 -77 -36q-76 -10 -121 32q-3 4 -6.5 7.5t-8.5 8t-8 7.5q-13 -11 -42.5 -35.5t-45.5 -36.5q-45 -31 -69 -39q-7 -3 -25 -8q-47 -12 -76.5 9.5t-32.5 70.5
q-2 34 2 104q0 29 -2 43q-4 14 -14 7q-12 -6 -22 -19q-6 -8 -21.5 -28t-26 -34.5t-18.5 -29.5q-23 -40 -64 -113t-55 -98l-53 -90q-23 -31 -45 -43q-19 -11 -35 -4.5t-22 28.5q-6 27 -2 80q11 184 75 396q13 46 58 170l-2 4v-4q-7 5 -17 -5q-28 -39 -33 -45l-233 -344
q-59 -85 -115 -147q-35 -35 -53 -49q-31 -20 -56.5 -12t-39.5 40q-12 30 -15 66q-9 99 21 260q17 77 66 217.5t92 245.5q1 2 6.5 17.5t7.5 23.5q0 12 -10 12q-38 0 -56 -4q-39 -5 -111 -16.5t-91 -14.5h-13q-12 4 -10 13q0 11 6 14q7 4 25 8q105 19 139 23q74 12 111 14
q36 3 51 37q51 104 90 178q8 17 31 47q10 14 26 4q17 -10 11 -26q-3 -11 -17 -33l-82 -160q-7 -19 -2.5 -26t21.5 -5q60 7 185.5 22.5t191.5 22.5q28 3 43 29l92 148q5 9 28 41q19 25 35 12q21 -12 6 -39l-24 -41q-45 -67 -64 -115q-3 -8 1.5 -13.5t13.5 -4.5q25 2 76 7
t77 7l371 31q30 3 61 0q11 0 19 -6.5t8 -14.5q-2 -14 -25 -14q-42 -4 -122 -8q-115 -7 -463 -39q-50 -6 -68 -45q-85 -184 -162.5 -400.5t-101.5 -371.5q-13 -72 -8 -133q15 -7 20 8q42 65 68 119q64 117 119 202q7 10 61 78q18 21 45 33q21 6 37 -1.5t22 -27.5
q10 -29 7 -67q-5 -73 -5 -86q0 -19 3 -37q6 -40 43 -31q28 5 61 27q15 10 39.5 30t34.5 27q50 38 53 98q3 103 80 193q35 39 63 45q34 9 54 -7.5t14 -51.5q-4 -37 -39 -97q-36 -59 -86 -112l-25 -29q-12 -12 0 -27q21 -34 76 -30q34 3 64 24q112 84 161 144q18 23 56 63.5
t43 46.5q13 13 20 15q14 3 23 -9zM186 90q68 99 228 355t223 350q15 20 12 32q-5 4 -24 4q-57 -7 -191 -20q-139 -20 -172 -23q-28 0 -37 -24q-2 -3 -5 -11.5t-5 -11.5q-47 -109 -102 -266.5t-74 -249.5q-21 -120 -16 -209q4 -41 12 -59q12 -19 24 -10q25 20 29 24
q54 55 98 119zM1141 369q-23 -45 -19 -70q13 2 21.5 9t16.5 21.5t11 18.5q35 44 48 86q4 8 4 17q-1 1 -2 3q-1 3 -2 3h-11q-39 -27 -67 -88z" />
    <glyph glyph-name="t_t" horiz-adv-x="784" 
d="M43 -141q-51 -16 -72 30q-8 18 -8 56q-4 67 19 178q59 312 170 596q20 50 16 58t-47 6q-16 -1 -19 -1q-24 -1 -73 -4t-74 -4q-19 -1 -29.5 5.5t-7.5 15.5q1 3 2.5 5.5t2.5 4.5t4 3l4.5 1.5t5.5 1t5 0.5h5.5h5.5q171 15 203 16q24 1 37 11.5t22 33.5q33 75 92 195
q15 29 39 63q8 12 21 15t22 -8q6 -13 4 -17q-2 -7 -18 -33q-48 -85 -109 -221q-6 -15 -1 -21.5t20 -4.5l141 6q178 8 260 10q47 3 66 39q4 8 55 96q16 27 20 31q10 14 29 6q17 -10 10 -27q-5 -12 -16 -36.5t-16 -36.5q-1 -2 -9 -14.5t-11 -22.5t-1 -21q49 -6 148 2
q61 5 174.5 17t138.5 14q35 0 49 -2q6 0 10 -6t4 -12q0 -15 -12 -21q-3 -1 -9 -2t-9 -2q-361 -33 -457 -37q-6 0 -18.5 -1t-18.5 -1q-36 3 -51 -35q-147 -316 -187 -548q-19 -125 -22 -236q0 -21 12 -39q12 -22 3.5 -51t-29.5 -41q-7 -5 -18 -2t-15 10q-10 17 -6 43
q8 160 16 236q13 159 84 366q1 2 5 13.5t3.5 14t-0.5 15.5q-5 -1 -8.5 -2.5t-6 -5t-4 -5.5t-4.5 -8t-3 -7q-119 -184 -260 -377q-99 -139 -144 -187q-29 -34 -78 -79q-26 -26 -57 -35zM51 -82q35 28 60 53q44 44 125 154q158 209 440 651q1 3 4 8.5t4 8.5q5 7 1.5 13.5
t-13.5 6.5q-20 -1 -56 -1.5t-66 -1.5t-56 -3q-4 0 -230 -12q-26 0 -39 -25q-1 -5 -4 -12.5t-4 -9.5q-121 -299 -180 -592q-25 -123 -25 -179v-43q1 -18 12.5 -22.5t26.5 6.5z" />
  </font>
</defs>
</svg>
